<?xml version="1.0" encoding="UTF-8" standalone="no"?>
<svg
   xmlns:dc="http://purl.org/dc/elements/1.1/"
   xmlns:cc="http://creativecommons.org/ns#"
   xmlns:rdf="http://www.w3.org/1999/02/22-rdf-syntax-ns#"
   xmlns:svg="http://www.w3.org/2000/svg"
   xmlns="http://www.w3.org/2000/svg"
   xmlns:sodipodi="http://sodipodi.sourceforge.net/DTD/sodipodi-0.dtd"
   xmlns:inkscape="http://www.inkscape.org/namespaces/inkscape"
   version="1.1"
   viewBox="0 0 516.82019 352.811"
   stroke-miterlimit="10"
   id="svg41"
   sodipodi:docname="Untitled presentation.svg"
   width="516.82019"
   height="352.811"
   style="fill:none;stroke:none;stroke-linecap:square;stroke-miterlimit:10"
   inkscape:version="0.92.4 (5da689c313, 2019-01-14)">
  <metadata
     id="metadata47">
    <rdf:RDF>
      <cc:Work
         rdf:about="">
        <dc:format>image/svg+xml</dc:format>
        <dc:type
           rdf:resource="http://purl.org/dc/dcmitype/StillImage" />
        <dc:title></dc:title>
      </cc:Work>
    </rdf:RDF>
  </metadata>
  <defs
     id="defs45" />
  <sodipodi:namedview
     pagecolor="#ffffff"
     bordercolor="#666666"
     borderopacity="1"
     objecttolerance="10"
     gridtolerance="10"
     guidetolerance="10"
     inkscape:pageopacity="0"
     inkscape:pageshadow="2"
     inkscape:window-width="3700"
     inkscape:window-height="2032"
     id="namedview43"
     showgrid="false"
     fit-margin-top="0"
     fit-margin-left="0"
     fit-margin-right="0"
     fit-margin-bottom="0"
     inkscape:zoom="0.43703704"
     inkscape:cx="304.12335"
     inkscape:cy="147.74407"
     inkscape:window-x="140"
     inkscape:window-y="54"
     inkscape:window-maximized="1"
     inkscape:current-layer="g39" />
  <clipPath
     id="p.0">
    <path
       d="M 0,0 H 960 V 540 H 0 Z"
       id="path2"
       inkscape:connector-curvature="0"
       style="clip-rule:nonzero" />
  </clipPath>
  <g
     clip-path="url(#p.0)"
     id="g39"
     transform="translate(-175.87665,-64.93307)">
    <path
       d="m 199.8819,65.43307 h 492.31494 v 351.811 H 199.8819 Z"
       id="path7"
       inkscape:connector-curvature="0"
       style="fill:#d9ead3;fill-rule:evenodd" />
    <path
       d="m 199.8819,65.43307 h 492.31494 v 351.811 H 199.8819 Z"
       id="path9"
       inkscape:connector-curvature="0"
       style="fill-rule:evenodd;stroke:#595959;stroke-width:1;stroke-linecap:butt;stroke-linejoin:round" />
    <path
       d="M 247.8819,91.272964 H 666.37006 V 353.25721 H 247.8819 Z"
       id="path11"
       inkscape:connector-curvature="0"
       style="fill:#d5a6bd;fill-rule:evenodd" />
    <path
       d="M 247.8819,91.272964 H 666.37006 V 353.25721 H 247.8819 Z"
       id="path13"
       inkscape:connector-curvature="0"
       style="fill-rule:evenodd;stroke:#595959;stroke-width:1;stroke-linecap:butt;stroke-linejoin:round" />
    <path
       d="m 308.61942,107.71654 h 328.7559 V 282.4567 h -328.7559 z"
       id="path15"
       inkscape:connector-curvature="0"
       style="fill:#ffe599;fill-rule:evenodd" />
    <path
       d="m 308.61942,107.71654 h 328.7559 V 282.4567 h -328.7559 z"
       id="path17"
       inkscape:connector-curvature="0"
       style="fill-rule:evenodd;stroke:#595959;stroke-width:1;stroke-linecap:butt;stroke-linejoin:round" />
    <path
       d="M 340.61942,135.90552 H 585.72181 V 202.4567 H 340.61942 Z"
       id="path19"
       inkscape:connector-curvature="0"
       style="fill:#a2c4c9;fill-rule:evenodd" />
    <path
       d="M 340.61942,135.90552 H 585.72181 V 202.4567 H 340.61942 Z"
       id="path21"
       inkscape:connector-curvature="0"
       style="fill-rule:evenodd;stroke:#595959;stroke-width:1;stroke-linecap:butt;stroke-linejoin:round" />
    <path
       d="m 340.61417,134.86613 h 245.10239 v 52.62993 H 340.61417 Z"
       id="path23"
       inkscape:connector-curvature="0"
       style="fill:#000000;fill-opacity:0;fill-rule:evenodd" />
    <path
       d="m 389.7376,182.26614 v -28.64063 h 19.3125 v 3.39063 h -15.51563 v 8.85937 h 13.4375 v 3.375 h -13.4375 v 13.01563 z m 37.38672,0 v -3.04688 q -2.42188,3.51563 -6.57813,3.51563 -1.84375,0 -3.4375,-0.70313 -1.59375,-0.70312 -2.35937,-1.76562 -0.76563,-1.0625 -1.07813,-2.60938 -0.21875,-1.03125 -0.21875,-3.28125 v -12.85937 h 3.51563 v 11.51562 q 0,2.75 0.21875,3.70313 0.32812,1.39062 1.39062,2.1875 1.07813,0.78125 2.67188,0.78125 1.57812,0 2.95312,-0.8125 1.39063,-0.8125 1.96875,-2.20313 0.57813,-1.39062 0.57813,-4.04687 v -11.125 h 3.51562 v 20.75 z m 8.65234,0 v -20.75 h 3.15625 v 2.95312 q 2.29688,-3.42187 6.60938,-3.42187 1.875,0 3.4375,0.6875 1.57812,0.67187 2.35937,1.76562 0.78125,1.09375 1.09375,2.59375 0.20313,0.96875 0.20313,3.42188 v 12.75 h -3.51563 v -12.625 q 0,-2.14063 -0.42187,-3.20313 -0.40625,-1.0625 -1.45313,-1.70312 -1.04687,-0.64063 -2.45312,-0.64063 -2.23438,0 -3.875,1.4375 -1.625,1.42188 -1.625,5.40625 v 11.32813 z m 35.77735,-7.59375 3.45312,0.4375 q -0.5625,3.57812 -2.90625,5.60937 -2.32812,2.01563 -5.71875,2.01563 -4.26562,0 -6.85937,-2.78125 -2.57813,-2.78125 -2.57813,-7.98438 0,-3.35937 1.10938,-5.875 1.125,-2.51562 3.39062,-3.78125 2.28125,-1.26562 4.95313,-1.26562 3.375,0 5.51562,1.71875 2.15625,1.70312 2.76563,4.84375 l -3.42188,0.53125 q -0.48437,-2.09375 -1.73437,-3.14063 -1.23438,-1.0625 -2.98438,-1.0625 -2.65625,0 -4.32812,1.90625 -1.65625,1.90625 -1.65625,6.03125 0,4.17188 1.59375,6.07813 1.60937,1.89062 4.1875,1.89062 2.07812,0 3.45312,-1.26562 1.39063,-1.28125 1.76563,-3.90625 z m 14.14062,4.45312 0.51563,3.09375 q -1.48438,0.32813 -2.65625,0.32813 -1.92188,0 -2.98438,-0.60938 -1.04687,-0.60937 -1.48437,-1.59375 -0.42188,-0.98437 -0.42188,-4.15625 v -11.9375 h -2.57812 v -2.73437 h 2.57812 v -5.125 l 3.5,-2.10938 v 7.23438 h 3.53125 v 2.73437 h -3.53125 v 12.14063 q 0,1.5 0.1875,1.9375 0.1875,0.42187 0.59375,0.67187 0.42188,0.25 1.20313,0.25 0.59375,0 1.54687,-0.125 z m 3.45703,-21.45312 v -4.04688 h 3.51563 v 4.04688 z m 0,24.59375 v -20.75 h 3.51563 v 20.75 z m 7.5586,-10.375 q 0,-5.76563 3.20312,-8.53125 2.67188,-2.3125 6.53125,-2.3125 4.26563,0 6.98438,2.8125 2.71875,2.79687 2.71875,7.73437 0,4.01563 -1.20313,6.3125 -1.20312,2.28125 -3.5,3.5625 -2.29687,1.26563 -5,1.26563 -4.35937,0 -7.04687,-2.79688 -2.6875,-2.79687 -2.6875,-8.04687 z m 3.60937,0 q 0,3.98437 1.73438,5.96875 1.75,1.98437 4.39062,1.98437 2.60938,0 4.34375,-1.98437 1.75,-2 1.75,-6.07813 0,-3.85937 -1.75,-5.82812 -1.75,-1.98438 -4.34375,-1.98438 -2.64062,0 -4.39062,1.96875 -1.73438,1.96875 -1.73438,5.95313 z m 19.94922,10.375 v -20.75 h 3.15625 v 2.95312 q 2.29688,-3.42187 6.60938,-3.42187 1.875,0 3.4375,0.6875 1.57812,0.67187 2.35937,1.76562 0.78125,1.09375 1.09375,2.59375 0.20313,0.96875 0.20313,3.42188 v 12.75 h -3.51563 v -12.625 q 0,-2.14063 -0.42187,-3.20313 -0.40625,-1.0625 -1.45313,-1.70312 -1.04687,-0.64063 -2.45312,-0.64063 -2.23438,0 -3.875,1.4375 -1.625,1.42188 -1.625,5.40625 v 11.32813 z"
       id="path25"
       inkscape:connector-curvature="0"
       style="fill:#000000;fill-rule:nonzero" />
    <path
       d="m 276.61417,214.86613 h 245.10239 v 52.62993 H 276.61417 Z"
       id="path27"
       inkscape:connector-curvature="0"
       style="fill:#000000;fill-opacity:0;fill-rule:evenodd" />
    <path
       d="m 351.54816,252.21927 3.79687,0.96875 q -1.20312,4.65625 -4.29687,7.10937 -3.09375,2.45313 -7.5625,2.45313 -4.625,0 -7.53125,-1.875 -2.90625,-1.89063 -4.42188,-5.46875 -1.5,-3.57813 -1.5,-7.67188 0,-4.46875 1.70313,-7.79687 1.70312,-3.34375 4.85937,-5.0625 3.15625,-1.73438 6.95313,-1.73438 4.29687,0 7.21875,2.1875 2.9375,2.1875 4.07812,6.15625 l -3.71875,0.875 q -1,-3.125 -2.90625,-4.54687 -1.89062,-1.42188 -4.75,-1.42188 -3.3125,0 -5.53125,1.57813 -2.20312,1.57812 -3.10937,4.25 -0.89063,2.65625 -0.89063,5.5 0,3.64062 1.0625,6.375 1.0625,2.71875 3.29688,4.07812 2.25,1.34375 4.875,1.34375 3.1875,0 5.39062,-1.82812 2.20313,-1.84375 2.98438,-5.46875 z m 7.93359,10.04687 v -28.64062 h 3.51563 v 28.64062 z m 22.4961,-2.5625 q -1.95313,1.65625 -3.76563,2.34375 -1.79687,0.6875 -3.875,0.6875 -3.40625,0 -5.25,-1.67187 -1.82812,-1.67188 -1.82812,-4.26563 0,-1.53125 0.6875,-2.78125 0.6875,-1.26562 1.8125,-2.01562 1.125,-0.76563 2.53125,-1.15625 1.03125,-0.28125 3.125,-0.53125 4.26562,-0.51563 6.26562,-1.21875 0.0312,-0.71875 0.0312,-0.90625 0,-2.15625 -1,-3.03125 -1.34375,-1.1875 -4,-1.1875 -2.48437,0 -3.67187,0.875 -1.17188,0.85937 -1.75,3.0625 l -3.4375,-0.46875 q 0.46875,-2.20313 1.54687,-3.5625 1.07813,-1.35938 3.10938,-2.09375 2.03125,-0.73438 4.70312,-0.73438 2.65625,0 4.3125,0.625 1.67188,0.625 2.45313,1.57813 0.78125,0.95312 1.09375,2.39062 0.17187,0.90625 0.17187,3.25 v 4.6875 q 0,4.89063 0.21875,6.20313 0.23438,1.29687 0.89063,2.48437 h -3.67188 q -0.54687,-1.09375 -0.70312,-2.5625 z m -0.29688,-7.84375 q -1.90625,0.78125 -5.73437,1.32813 -2.17188,0.3125 -3.07813,0.70312 -0.89062,0.39063 -1.375,1.14063 -0.48437,0.75 -0.48437,1.67187 0,1.40625 1.0625,2.34375 1.0625,0.9375 3.10937,0.9375 2.03125,0 3.60938,-0.89062 1.59375,-0.89063 2.32812,-2.4375 0.5625,-1.1875 0.5625,-3.51563 z m 7.60547,4.21875 3.46875,-0.54687 q 0.29688,2.07812 1.625,3.20312 1.34375,1.10938 3.75,1.10938 2.42188,0 3.59375,-0.98438 1.17188,-0.98437 1.17188,-2.3125 0,-1.20312 -1.03125,-1.875 -0.71875,-0.46875 -3.59375,-1.20312 -3.875,-0.96875 -5.375,-1.67188 -1.48438,-0.71875 -2.26563,-1.98437 -0.76562,-1.26563 -0.76562,-2.78125 0,-1.39063 0.64062,-2.5625 0.64063,-1.1875 1.73438,-1.96875 0.8125,-0.60938 2.21875,-1.03125 1.42187,-0.42188 3.04687,-0.42188 2.4375,0 4.28125,0.70313 1.85938,0.70312 2.73438,1.90625 0.875,1.20312 1.20312,3.21875 l -3.4375,0.46875 q -0.23437,-1.60938 -1.35937,-2.5 -1.10938,-0.90625 -3.17188,-0.90625 -2.42187,0 -3.45312,0.8125 -1.03125,0.79687 -1.03125,1.875 0,0.67187 0.42187,1.21875 0.4375,0.57812 1.35938,0.9375 0.51562,0.20312 3.09375,0.90625 3.73437,1 5.20312,1.64062 1.48438,0.625 2.3125,1.84375 0.84375,1.20313 0.84375,3 0,1.75 -1.03125,3.3125 -1.01562,1.54688 -2.95312,2.40625 -1.92188,0.84375 -4.375,0.84375 -4.03125,0 -6.15625,-1.67187 -2.125,-1.6875 -2.70313,-4.98438 z m 20,0 3.46875,-0.54687 q 0.29688,2.07812 1.625,3.20312 1.34375,1.10938 3.75,1.10938 2.42188,0 3.59375,-0.98438 1.17188,-0.98437 1.17188,-2.3125 0,-1.20312 -1.03125,-1.875 -0.71875,-0.46875 -3.59375,-1.20312 -3.875,-0.96875 -5.375,-1.67188 -1.48438,-0.71875 -2.26563,-1.98437 -0.76562,-1.26563 -0.76562,-2.78125 0,-1.39063 0.64062,-2.5625 0.64063,-1.1875 1.73438,-1.96875 0.8125,-0.60938 2.21875,-1.03125 1.42187,-0.42188 3.04687,-0.42188 2.4375,0 4.28125,0.70313 1.85938,0.70312 2.73438,1.90625 0.875,1.20312 1.20312,3.21875 l -3.4375,0.46875 q -0.23437,-1.60938 -1.35937,-2.5 -1.10938,-0.90625 -3.17188,-0.90625 -2.42187,0 -3.45312,0.8125 -1.03125,0.79687 -1.03125,1.875 0,0.67187 0.42187,1.21875 0.4375,0.57812 1.35938,0.9375 0.51562,0.20312 3.09375,0.90625 3.73437,1 5.20312,1.64062 1.48438,0.625 2.3125,1.84375 0.84375,1.20313 0.84375,3 0,1.75 -1.03125,3.3125 -1.01562,1.54688 -2.95312,2.40625 -1.92188,0.84375 -4.375,0.84375 -4.03125,0 -6.15625,-1.67187 -2.125,-1.6875 -2.70313,-4.98438 z m 35.60938,-0.5 3.625,0.45313 q -0.85938,3.1875 -3.1875,4.95312 -2.3125,1.75 -5.9375,1.75 -4.54688,0 -7.21875,-2.79687 -2.65625,-2.8125 -2.65625,-7.875 0,-5.23438 2.6875,-8.125 2.70312,-2.89063 7,-2.89063 4.15625,0 6.79687,2.84375 2.64063,2.82813 2.64063,7.96875 0,0.3125 -0.0312,0.9375 h -15.46875 q 0.20312,3.40625 1.9375,5.23438 1.73437,1.8125 4.34375,1.8125 1.92187,0 3.28125,-1.01563 1.375,-1.01562 2.1875,-3.25 z m -11.54688,-5.67187 h 11.57813 q -0.23438,-2.625 -1.32813,-3.9375 -1.67187,-2.03125 -4.35937,-2.03125 -2.42188,0 -4.07813,1.625 -1.64062,1.625 -1.8125,4.34375 z m 18.1836,6.17187 3.46875,-0.54687 q 0.29687,2.07812 1.625,3.20312 1.34375,1.10938 3.75,1.10938 2.42187,0 3.59375,-0.98438 1.17187,-0.98437 1.17187,-2.3125 0,-1.20312 -1.03125,-1.875 -0.71875,-0.46875 -3.59375,-1.20312 -3.875,-0.96875 -5.375,-1.67188 -1.48437,-0.71875 -2.26562,-1.98437 -0.76563,-1.26563 -0.76563,-2.78125 0,-1.39063 0.64063,-2.5625 0.64062,-1.1875 1.73437,-1.96875 0.8125,-0.60938 2.21875,-1.03125 1.42188,-0.42188 3.04688,-0.42188 2.4375,0 4.28125,0.70313 1.85937,0.70312 2.73437,1.90625 0.875,1.20312 1.20313,3.21875 l -3.4375,0.46875 q -0.23438,-1.60938 -1.35938,-2.5 -1.10937,-0.90625 -3.17187,-0.90625 -2.42188,0 -3.45313,0.8125 -1.03125,0.79687 -1.03125,1.875 0,0.67187 0.42188,1.21875 0.4375,0.57812 1.35937,0.9375 0.51563,0.20312 3.09375,0.90625 3.73438,1 5.20313,1.64062 1.48437,0.625 2.3125,1.84375 0.84375,1.20313 0.84375,3 0,1.75 -1.03125,3.3125 -1.01563,1.54688 -2.95313,2.40625 -1.92187,0.84375 -4.375,0.84375 -4.03125,0 -6.15625,-1.67187 -2.125,-1.6875 -2.70312,-4.98438 z"
       id="path29"
       inkscape:connector-curvature="0"
       style="fill:#000000;fill-rule:nonzero" />
    <path
       d="m 223.87665,285.67715 h 245.10236 v 52.62994 H 223.87665 Z"
       id="path31"
       inkscape:connector-curvature="0"
       style="fill:#000000;fill-opacity:0;fill-rule:evenodd" />
    <path
       d="m 273.80087,333.07715 v -28.64062 h 5.70312 l 6.78125,20.28125 q 0.9375,2.82812 1.35938,4.23437 0.5,-1.5625 1.53125,-4.59375 l 6.85937,-19.92187 h 5.09375 v 28.64062 h -3.65625 V 309.1084 l -8.3125,23.96875 h -3.42187 l -8.28125,-24.375 v 24.375 z m 31.67969,-10.375 q 0,-5.76562 3.20312,-8.53125 2.67188,-2.3125 6.53125,-2.3125 4.26563,0 6.98438,2.8125 2.71875,2.79688 2.71875,7.73438 0,4.01562 -1.20313,6.3125 -1.20312,2.28125 -3.5,3.5625 -2.29687,1.26562 -5,1.26562 -4.35937,0 -7.04687,-2.79687 -2.6875,-2.79688 -2.6875,-8.04688 z m 3.60937,0 q 0,3.98438 1.73438,5.96875 1.75,1.98438 4.39062,1.98438 2.60938,0 4.34375,-1.98438 1.75,-2 1.75,-6.07812 0,-3.85938 -1.75,-5.82813 -1.75,-1.98437 -4.34375,-1.98437 -2.64062,0 -4.39062,1.96875 -1.73438,1.96875 -1.73438,5.95312 z m 33.40235,10.375 v -2.625 q -1.96875,3.09375 -5.79688,3.09375 -2.48437,0 -4.5625,-1.35937 -2.07812,-1.375 -3.21875,-3.82813 -1.14062,-2.45312 -1.14062,-5.64062 0,-3.09375 1.03125,-5.625 1.03125,-2.53125 3.09375,-3.875 2.07812,-1.35938 4.64062,-1.35938 1.875,0 3.32813,0.79688 1.46875,0.79687 2.39062,2.0625 v -10.28125 h 3.5 v 28.64062 z M 331.3829,322.71778 q 0,3.98437 1.67188,5.96875 1.6875,1.96875 3.96875,1.96875 2.3125,0 3.92187,-1.875 1.60938,-1.89063 1.60938,-5.76563 0,-4.25 -1.64063,-6.23437 -1.64062,-2 -4.04687,-2 -2.34375,0 -3.92188,1.92187 -1.5625,1.90625 -1.5625,6.01563 z m 33.4961,10.35937 v -3.04687 q -2.42188,3.51562 -6.57813,3.51562 -1.84375,0 -3.4375,-0.70312 -1.59375,-0.70313 -2.35937,-1.76563 -0.76563,-1.0625 -1.07813,-2.60937 -0.21875,-1.03125 -0.21875,-3.28125 v -12.85938 h 3.51563 v 11.51563 q 0,2.75 0.21875,3.70312 0.32812,1.39063 1.39062,2.1875 1.07813,0.78125 2.67188,0.78125 1.57812,0 2.95312,-0.8125 1.39063,-0.8125 1.96875,-2.20312 0.57813,-1.39063 0.57813,-4.04688 v -11.125 h 3.51562 v 20.75 z m 8.57421,0 v -28.64062 h 3.51563 v 28.64062 z m 23.16797,-6.6875 3.625,0.45313 q -0.85937,3.1875 -3.1875,4.95312 -2.3125,1.75 -5.9375,1.75 -4.54687,0 -7.21875,-2.79687 -2.65625,-2.8125 -2.65625,-7.875 0,-5.23438 2.6875,-8.125 2.70313,-2.89063 7,-2.89063 4.15625,0 6.79688,2.84375 2.64062,2.82813 2.64062,7.96875 0,0.3125 -0.0312,0.9375 h -15.46875 q 0.20313,3.40625 1.9375,5.23438 1.73438,1.8125 4.34375,1.8125 1.92188,0 3.28125,-1.01563 1.375,-1.01562 2.1875,-3.25 z m -11.54687,-5.67187 h 11.57812 q -0.23437,-2.625 -1.32812,-3.9375 -1.67188,-2.03125 -4.35938,-2.03125 -2.42187,0 -4.07812,1.625 -1.64063,1.625 -1.8125,4.34375 z m 18.18359,6.17187 3.46875,-0.54687 q 0.29688,2.07812 1.625,3.20312 1.34375,1.10938 3.75,1.10938 2.42188,0 3.59375,-0.98438 1.17188,-0.98437 1.17188,-2.3125 0,-1.20312 -1.03125,-1.875 -0.71875,-0.46875 -3.59375,-1.20312 -3.875,-0.96875 -5.375,-1.67188 -1.48438,-0.71875 -2.26563,-1.98437 -0.76562,-1.26563 -0.76562,-2.78125 0,-1.39063 0.64062,-2.5625 0.64063,-1.1875 1.73438,-1.96875 0.8125,-0.60938 2.21875,-1.03125 1.42187,-0.42188 3.04687,-0.42188 2.4375,0 4.28125,0.70313 1.85938,0.70312 2.73438,1.90625 0.875,1.20312 1.20312,3.21875 l -3.4375,0.46875 q -0.23437,-1.60938 -1.35937,-2.5 -1.10938,-0.90625 -3.17188,-0.90625 -2.42187,0 -3.45312,0.8125 -1.03125,0.79687 -1.03125,1.875 0,0.67187 0.42187,1.21875 0.4375,0.57812 1.35938,0.9375 0.51562,0.20312 3.09375,0.90625 3.73437,1 5.20312,1.64062 1.48438,0.625 2.3125,1.84375 0.84375,1.20313 0.84375,3 0,1.75 -1.03125,3.3125 -1.01562,1.54688 -2.95312,2.40625 -1.92188,0.84375 -4.375,0.84375 -4.03125,0 -6.15625,-1.67187 -2.125,-1.6875 -2.70313,-4.98438 z"
       id="path33"
       inkscape:connector-curvature="0"
       style="fill:#000000;fill-rule:nonzero" />
    <path
       d="m 175.87665,349.67715 h 245.10236 v 52.62994 H 175.87665 Z"
       id="path35"
       inkscape:connector-curvature="0"
       style="fill:#000000;fill-opacity:0;fill-rule:evenodd" />
    <path
       d="m 213.68954,397.07715 v -28.64062 h 10.79687 q 2.84375,0 4.35938,0.28125 2.10937,0.34375 3.53125,1.34375 1.42187,0.98437 2.28125,2.76562 0.875,1.76563 0.875,3.89063 0,3.65625 -2.32813,6.1875 -2.3125,2.53125 -8.39062,2.53125 h -7.34375 v 11.64062 z m 3.78125,-15.01562 h 7.40625 q 3.67187,0 5.20312,-1.35938 1.54688,-1.375 1.54688,-3.85937 0,-1.79688 -0.90625,-3.07813 -0.90625,-1.28125 -2.39063,-1.6875 -0.95312,-0.25 -3.53125,-0.25 h -7.32812 z m 35.97656,12.45312 q -1.95312,1.65625 -3.76562,2.34375 -1.79688,0.6875 -3.875,0.6875 -3.40625,0 -5.25,-1.67187 -1.82813,-1.67188 -1.82813,-4.26563 0,-1.53125 0.6875,-2.78125 0.6875,-1.26562 1.8125,-2.01562 1.125,-0.76563 2.53125,-1.15625 1.03125,-0.28125 3.125,-0.53125 4.26563,-0.51563 6.26563,-1.21875 0.0312,-0.71875 0.0312,-0.90625 0,-2.15625 -1,-3.03125 -1.34375,-1.1875 -4,-1.1875 -2.48438,0 -3.67188,0.875 -1.17187,0.85937 -1.75,3.0625 l -3.4375,-0.46875 q 0.46875,-2.20313 1.54688,-3.5625 1.07812,-1.35938 3.10937,-2.09375 2.03125,-0.73438 4.70313,-0.73438 2.65625,0 4.3125,0.625 1.67187,0.625 2.45312,1.57813 0.78125,0.95312 1.09375,2.39062 0.17188,0.90625 0.17188,3.25 v 4.6875 q 0,4.89063 0.21875,6.20313 0.23437,1.29687 0.89062,2.48437 h -3.67187 q -0.54688,-1.09375 -0.70313,-2.5625 z m -0.29687,-7.84375 q -1.90625,0.78125 -5.73438,1.32813 -2.17187,0.3125 -3.07812,0.70312 -0.89063,0.39063 -1.375,1.14063 -0.48438,0.75 -0.48438,1.67187 0,1.40625 1.0625,2.34375 1.0625,0.9375 3.10938,0.9375 2.03125,0 3.60937,-0.89062 1.59375,-0.89063 2.32813,-2.4375 0.5625,-1.1875 0.5625,-3.51563 z m 22.54297,2.8125 3.45312,0.4375 q -0.5625,3.57813 -2.90625,5.60938 -2.32812,2.01562 -5.71875,2.01562 -4.26562,0 -6.85937,-2.78125 -2.57813,-2.78125 -2.57813,-7.98437 0,-3.35938 1.10938,-5.875 1.125,-2.51563 3.39062,-3.78125 2.28125,-1.26563 4.95313,-1.26563 3.375,0 5.51562,1.71875 2.15625,1.70313 2.76563,4.84375 l -3.42188,0.53125 q -0.48437,-2.09375 -1.73437,-3.14062 -1.23438,-1.0625 -2.98438,-1.0625 -2.65625,0 -4.32812,1.90625 -1.65625,1.90625 -1.65625,6.03125 0,4.17187 1.59375,6.07812 1.60937,1.89063 4.1875,1.89063 2.07812,0 3.45312,-1.26563 1.39063,-1.28125 1.76563,-3.90625 z m 6.48437,7.59375 v -28.64062 h 3.51563 v 16.32812 l 8.32812,-8.4375 h 4.54688 l -7.9375,7.70313 8.73437,13.04687 h -4.32812 l -6.85938,-10.60937 -2.48437,2.39062 v 8.21875 z m 33.51563,-2.5625 q -1.95313,1.65625 -3.76563,2.34375 -1.79687,0.6875 -3.875,0.6875 -3.40625,0 -5.25,-1.67187 -1.82812,-1.67188 -1.82812,-4.26563 0,-1.53125 0.6875,-2.78125 0.6875,-1.26562 1.8125,-2.01562 1.125,-0.76563 2.53125,-1.15625 1.03125,-0.28125 3.125,-0.53125 4.26562,-0.51563 6.26562,-1.21875 0.0312,-0.71875 0.0312,-0.90625 0,-2.15625 -1,-3.03125 -1.34375,-1.1875 -4,-1.1875 -2.48437,0 -3.67187,0.875 -1.17188,0.85937 -1.75,3.0625 l -3.4375,-0.46875 q 0.46875,-2.20313 1.54687,-3.5625 1.07813,-1.35938 3.10938,-2.09375 2.03125,-0.73438 4.70312,-0.73438 2.65625,0 4.3125,0.625 1.67188,0.625 2.45313,1.57813 0.78125,0.95312 1.09375,2.39062 0.17187,0.90625 0.17187,3.25 v 4.6875 q 0,4.89063 0.21875,6.20313 0.23438,1.29687 0.89063,2.48437 h -3.67188 q -0.54687,-1.09375 -0.70312,-2.5625 z m -0.29688,-7.84375 q -1.90625,0.78125 -5.73437,1.32813 -2.17188,0.3125 -3.07813,0.70312 -0.89062,0.39063 -1.375,1.14063 -0.48437,0.75 -0.48437,1.67187 0,1.40625 1.0625,2.34375 1.0625,0.9375 3.10937,0.9375 2.03125,0 3.60938,-0.89062 1.59375,-0.89063 2.32812,-2.4375 0.5625,-1.1875 0.5625,-3.51563 z m 8.37109,12.125 3.40625,0.51563 q 0.21875,1.57812 1.20313,2.29687 1.29687,0.98438 3.5625,0.98438 2.45312,0 3.78125,-0.98438 1.32812,-0.96875 1.79687,-2.73437 0.26563,-1.07813 0.25,-4.51563 -2.3125,2.71875 -5.75,2.71875 -4.26562,0 -6.60937,-3.07812 -2.34375,-3.09375 -2.34375,-7.40625 0,-2.96875 1.0625,-5.48438 1.07812,-2.51562 3.10937,-3.875 2.04688,-1.375 4.8125,-1.375 3.67188,0 6.04688,2.96875 v -2.5 h 3.25 v 17.9375 q 0,4.84375 -1,6.85938 -0.98438,2.03125 -3.125,3.20312 -2.125,1.17188 -5.25,1.17188 -3.71875,0 -6,-1.67188 -2.28125,-1.67187 -2.20313,-5.03125 z m 2.90625,-12.46875 q 0,4.09375 1.60938,5.96875 1.625,1.875 4.07812,1.875 2.42188,0 4.0625,-1.85937 1.64063,-1.875 1.64063,-5.85938 0,-3.8125 -1.70313,-5.73437 -1.6875,-1.9375 -4.0625,-1.9375 -2.34375,0 -3.98437,1.90625 -1.64063,1.89062 -1.64063,5.64062 z m 34.1836,4.0625 3.625,0.45313 q -0.85938,3.1875 -3.1875,4.95312 -2.3125,1.75 -5.9375,1.75 -4.54688,0 -7.21875,-2.79687 -2.65625,-2.8125 -2.65625,-7.875 0,-5.23438 2.6875,-8.125 2.70312,-2.89063 7,-2.89063 4.15625,0 6.79687,2.84375 2.64063,2.82813 2.64063,7.96875 0,0.3125 -0.0312,0.9375 h -15.46875 q 0.20312,3.40625 1.9375,5.23438 1.73437,1.8125 4.34375,1.8125 1.92187,0 3.28125,-1.01563 1.375,-1.01562 2.1875,-3.25 z m -11.54688,-5.67187 h 11.57813 q -0.23438,-2.625 -1.32813,-3.9375 -1.67187,-2.03125 -4.35937,-2.03125 -2.42188,0 -4.07813,1.625 -1.64062,1.625 -1.8125,4.34375 z m 18.1836,6.17187 3.46875,-0.54687 q 0.29687,2.07812 1.625,3.20312 1.34375,1.10938 3.75,1.10938 2.42187,0 3.59375,-0.98438 1.17187,-0.98437 1.17187,-2.3125 0,-1.20312 -1.03125,-1.875 -0.71875,-0.46875 -3.59375,-1.20312 -3.875,-0.96875 -5.375,-1.67188 -1.48437,-0.71875 -2.26562,-1.98437 -0.76563,-1.26563 -0.76563,-2.78125 0,-1.39063 0.64063,-2.5625 0.64062,-1.1875 1.73437,-1.96875 0.8125,-0.60938 2.21875,-1.03125 1.42188,-0.42188 3.04688,-0.42188 2.4375,0 4.28125,0.70313 1.85937,0.70312 2.73437,1.90625 0.875,1.20312 1.20313,3.21875 l -3.4375,0.46875 q -0.23438,-1.60938 -1.35938,-2.5 -1.10937,-0.90625 -3.17187,-0.90625 -2.42188,0 -3.45313,0.8125 -1.03125,0.79687 -1.03125,1.875 0,0.67187 0.42188,1.21875 0.4375,0.57812 1.35937,0.9375 0.51563,0.20312 3.09375,0.90625 3.73438,1 5.20313,1.64062 1.48437,0.625 2.3125,1.84375 0.84375,1.20313 0.84375,3 0,1.75 -1.03125,3.3125 -1.01563,1.54688 -2.95313,2.40625 -1.92187,0.84375 -4.375,0.84375 -4.03125,0 -6.15625,-1.67187 -2.125,-1.6875 -2.70312,-4.98438 z"
       id="path37"
       inkscape:connector-curvature="0"
       style="fill:#000000;fill-rule:nonzero" />
  </g>
</svg>
