<?xml version="1.0" encoding="UTF-8" standalone="no"?>
<!-- Created with Inkscape (http://www.inkscape.org/) -->
<svg
   xmlns:dc="http://purl.org/dc/elements/1.1/"
   xmlns:cc="http://web.resource.org/cc/"
   xmlns:rdf="http://www.w3.org/1999/02/22-rdf-syntax-ns#"
   xmlns:svg="http://www.w3.org/2000/svg"
   xmlns="http://www.w3.org/2000/svg"
   xmlns:xlink="http://www.w3.org/1999/xlink"
   xmlns:sodipodi="http://sodipodi.sourceforge.net/DTD/sodipodi-0.dtd"
   xmlns:inkscape="http://www.inkscape.org/namespaces/inkscape"
   width="150"
   height="150"
   id="svg2"
   sodipodi:version="0.32"
   inkscape:version="0.45.1"
   version="1.0"
   sodipodi:docbase="J:\Eigene Dateien\Eigene Downloads"
   sodipodi:docname="Glasbutton_Tipp.svg"
   inkscape:output_extension="org.inkscape.output.svg.inkscape">
  <defs
     id="defs4">
    <linearGradient
       id="linearGradient8711">
      <stop
         style="stop-color:white;stop-opacity:1;"
         offset="0"
         id="stop8713" />
      <stop
         style="stop-color:white;stop-opacity:0;"
         offset="1"
         id="stop8715" />
    </linearGradient>
    <linearGradient
       inkscape:collect="always"
       id="linearGradient8691">
      <stop
         style="stop-color:white;stop-opacity:1;"
         offset="0"
         id="stop8693" />
      <stop
         style="stop-color:white;stop-opacity:0;"
         offset="1"
         id="stop8695" />
    </linearGradient>
    <linearGradient
       id="linearGradient8675">
      <stop
         id="stop8677"
         offset="0"
         style="stop-color:white;stop-opacity:1;" />
      <stop
         id="stop8679"
         offset="1"
         style="stop-color:white;stop-opacity:0" />
    </linearGradient>
    <linearGradient
       id="linearGradient4565">
      <stop
         id="stop4567"
         offset="0"
         style="stop-color:#f9ffe3;stop-opacity:0;" />
      <stop
         id="stop4569"
         offset="1"
         style="stop-color:white;stop-opacity:1;" />
    </linearGradient>
    <linearGradient
       id="linearGradient4549">
      <stop
         style="stop-color:#ffffff;stop-opacity:0;"
         offset="0"
         id="stop4551" />
      <stop
         style="stop-color:#b76200;stop-opacity:0.71867007;"
         offset="1"
         id="stop4553" />
    </linearGradient>
    <linearGradient
       id="linearGradient3653">
      <stop
         id="stop3655"
         offset="0"
         style="stop-color:#e7a000;stop-opacity:1;" />
      <stop
         id="stop3657"
         offset="1"
         style="stop-color:#ffffff;stop-opacity:0;" />
    </linearGradient>
    <linearGradient
       id="linearGradient2762">
      <stop
         style="stop-color:#b5e700;stop-opacity:1"
         offset="0"
         id="stop2766" />
      <stop
         style="stop-color:white;stop-opacity:0"
         offset="1"
         id="stop2764" />
    </linearGradient>
    <linearGradient
       inkscape:collect="always"
       xlink:href="#linearGradient3653"
       id="linearGradient3651"
       x1="0"
       y1="0"
       x2="300"
       y2="300"
       gradientUnits="userSpaceOnUse" />
    <radialGradient
       inkscape:collect="always"
       xlink:href="#linearGradient4549"
       id="radialGradient4560"
       cx="150"
       cy="150"
       fx="150"
       fy="150"
       r="150"
       gradientUnits="userSpaceOnUse" />
    <linearGradient
       inkscape:collect="always"
       xlink:href="#linearGradient4565"
       id="linearGradient4573"
       x1="149.99998"
       y1="301.5304"
       x2="149.99998"
       y2="-1.5304027"
       gradientUnits="userSpaceOnUse" />
    <linearGradient
       inkscape:collect="always"
       xlink:href="#linearGradient8675"
       id="linearGradient8673"
       x1="515.992"
       y1="94.741005"
       x2="540.04871"
       y2="94.741005"
       gradientUnits="userSpaceOnUse" />
    <linearGradient
       inkscape:collect="always"
       xlink:href="#linearGradient8691"
       id="linearGradient8697"
       x1="510.00647"
       y1="219.22574"
       x2="522.73132"
       y2="219.22574"
       gradientUnits="userSpaceOnUse" />
    <linearGradient
       inkscape:collect="always"
       xlink:href="#linearGradient8711"
       id="linearGradient8717"
       x1="511.66528"
       y1="178.24654"
       x2="523.82312"
       y2="180.54463"
       gradientUnits="userSpaceOnUse" />
    <linearGradient
       inkscape:collect="always"
       xlink:href="#linearGradient8675"
       id="linearGradient8745"
       gradientUnits="userSpaceOnUse"
       x1="515.992"
       y1="94.741005"
       x2="540.04871"
       y2="94.741005" />
    <linearGradient
       inkscape:collect="always"
       xlink:href="#linearGradient8691"
       id="linearGradient8747"
       gradientUnits="userSpaceOnUse"
       x1="510.00647"
       y1="219.22574"
       x2="522.73132"
       y2="219.22574" />
    <linearGradient
       inkscape:collect="always"
       xlink:href="#linearGradient8711"
       id="linearGradient8749"
       gradientUnits="userSpaceOnUse"
       x1="511.66528"
       y1="178.24654"
       x2="523.82312"
       y2="180.54463" />
    <linearGradient
       inkscape:collect="always"
       xlink:href="#linearGradient8711"
       id="linearGradient8757"
       gradientUnits="userSpaceOnUse"
       x1="511.66528"
       y1="178.24654"
       x2="523.82312"
       y2="180.54463"
       gradientTransform="matrix(0.556209,0,0,0.556209,-123.5203,73.4252)" />
    <linearGradient
       inkscape:collect="always"
       xlink:href="#linearGradient8691"
       id="linearGradient8760"
       gradientUnits="userSpaceOnUse"
       x1="510.00647"
       y1="219.22574"
       x2="522.73132"
       y2="219.22574"
       gradientTransform="matrix(0.556209,0,0,0.556209,-123.5203,73.4252)" />
    <linearGradient
       inkscape:collect="always"
       xlink:href="#linearGradient8675"
       id="linearGradient8763"
       gradientUnits="userSpaceOnUse"
       x1="515.992"
       y1="94.741005"
       x2="540.04871"
       y2="94.741005"
       gradientTransform="matrix(0.556209,0,0,0.556209,-123.5203,73.4252)" />
    <linearGradient
       inkscape:collect="always"
       xlink:href="#linearGradient8675"
       id="linearGradient8787"
       gradientUnits="userSpaceOnUse"
       gradientTransform="matrix(0.556209,0,0,0.556209,-123.5203,73.4252)"
       x1="515.992"
       y1="94.741005"
       x2="540.04871"
       y2="94.741005" />
    <linearGradient
       inkscape:collect="always"
       xlink:href="#linearGradient8691"
       id="linearGradient8789"
       gradientUnits="userSpaceOnUse"
       gradientTransform="matrix(0.556209,0,0,0.556209,-123.5203,73.4252)"
       x1="510.00647"
       y1="219.22574"
       x2="522.73132"
       y2="219.22574" />
    <linearGradient
       inkscape:collect="always"
       xlink:href="#linearGradient8711"
       id="linearGradient8791"
       gradientUnits="userSpaceOnUse"
       gradientTransform="matrix(0.556209,0,0,0.556209,-123.5203,73.4252)"
       x1="511.66528"
       y1="178.24654"
       x2="523.82312"
       y2="180.54463" />
    <linearGradient
       inkscape:collect="always"
       xlink:href="#linearGradient8675"
       id="linearGradient8833"
       gradientUnits="userSpaceOnUse"
       gradientTransform="matrix(0.556209,0,0,0.556209,-123.5203,73.4252)"
       x1="515.992"
       y1="94.741005"
       x2="540.04871"
       y2="94.741005" />
    <linearGradient
       inkscape:collect="always"
       xlink:href="#linearGradient8691"
       id="linearGradient8835"
       gradientUnits="userSpaceOnUse"
       gradientTransform="matrix(0.556209,0,0,0.556209,-123.5203,73.4252)"
       x1="510.00647"
       y1="219.22574"
       x2="522.73132"
       y2="219.22574" />
    <linearGradient
       inkscape:collect="always"
       xlink:href="#linearGradient8711"
       id="linearGradient8837"
       gradientUnits="userSpaceOnUse"
       gradientTransform="matrix(0.556209,0,0,0.556209,-123.5203,73.4252)"
       x1="511.66528"
       y1="178.24654"
       x2="523.82312"
       y2="180.54463" />
    <linearGradient
       inkscape:collect="always"
       xlink:href="#linearGradient8711"
       id="linearGradient8845"
       gradientUnits="userSpaceOnUse"
       gradientTransform="matrix(0.588835,0,0,0.588835,-142.6436,70.09923)"
       x1="511.66528"
       y1="178.24654"
       x2="523.82312"
       y2="180.54463" />
    <linearGradient
       inkscape:collect="always"
       xlink:href="#linearGradient8691"
       id="linearGradient8848"
       gradientUnits="userSpaceOnUse"
       gradientTransform="matrix(0.588835,0,0,0.588835,-142.6436,70.09923)"
       x1="510.00647"
       y1="219.22574"
       x2="522.73132"
       y2="219.22574" />
    <linearGradient
       inkscape:collect="always"
       xlink:href="#linearGradient8675"
       id="linearGradient8851"
       gradientUnits="userSpaceOnUse"
       gradientTransform="matrix(0.588835,0,0,0.588835,-142.6436,70.09923)"
       x1="515.992"
       y1="94.741005"
       x2="540.04871"
       y2="94.741005" />
    <linearGradient
       inkscape:collect="always"
       xlink:href="#linearGradient8675"
       id="linearGradient8875"
       gradientUnits="userSpaceOnUse"
       gradientTransform="matrix(0.588835,0,0,0.588835,-142.6436,70.09923)"
       x1="515.992"
       y1="94.741005"
       x2="540.04871"
       y2="94.741005" />
    <linearGradient
       inkscape:collect="always"
       xlink:href="#linearGradient8691"
       id="linearGradient8877"
       gradientUnits="userSpaceOnUse"
       gradientTransform="matrix(0.588835,0,0,0.588835,-142.6436,70.09923)"
       x1="510.00647"
       y1="219.22574"
       x2="522.73132"
       y2="219.22574" />
    <linearGradient
       inkscape:collect="always"
       xlink:href="#linearGradient8711"
       id="linearGradient8879"
       gradientUnits="userSpaceOnUse"
       gradientTransform="matrix(0.588835,0,0,0.588835,-142.6436,70.09923)"
       x1="511.66528"
       y1="178.24654"
       x2="523.82312"
       y2="180.54463" />
    <linearGradient
       inkscape:collect="always"
       xlink:href="#linearGradient8711"
       id="linearGradient4557"
       gradientUnits="userSpaceOnUse"
       gradientTransform="matrix(0.3679244,0,0,0.3679244,-108.7357,30.757607)"
       x1="511.66528"
       y1="178.24654"
       x2="523.82312"
       y2="180.54463" />
    <linearGradient
       inkscape:collect="always"
       xlink:href="#linearGradient8691"
       id="linearGradient4560"
       gradientUnits="userSpaceOnUse"
       gradientTransform="matrix(0.3679244,0,0,0.3679244,-108.7357,30.757607)"
       x1="510.00647"
       y1="219.22574"
       x2="522.73132"
       y2="219.22574" />
    <linearGradient
       inkscape:collect="always"
       xlink:href="#linearGradient8675"
       id="linearGradient4563"
       gradientUnits="userSpaceOnUse"
       gradientTransform="matrix(0.3679244,0,0,0.3679244,-108.7357,30.757607)"
       x1="515.992"
       y1="94.741005"
       x2="540.04871"
       y2="94.741005" />
    <linearGradient
       inkscape:collect="always"
       xlink:href="#linearGradient3653"
       id="linearGradient5139"
       gradientUnits="userSpaceOnUse"
       x1="0"
       y1="0"
       x2="300"
       y2="300" />
  </defs>
  <sodipodi:namedview
     id="base"
     pagecolor="#ffffff"
     bordercolor="#666666"
     borderopacity="1.0"
     inkscape:pageopacity="0.0"
     inkscape:pageshadow="2"
     inkscape:zoom="4.92"
     inkscape:cx="75"
     inkscape:cy="72.058751"
     inkscape:document-units="px"
     inkscape:current-layer="layer2"
     width="150px"
     height="150px"
     inkscape:window-width="1280"
     inkscape:window-height="934"
     inkscape:window-x="-4"
     inkscape:window-y="-4"
     showguides="true"
     inkscape:guide-bbox="true">
    <sodipodi:guide
       orientation="horizontal"
       position="479.82246"
       id="guide4575" />
    <sodipodi:guide
       orientation="vertical"
       position="93.944187"
       id="guide4579" />
    <sodipodi:guide
       orientation="vertical"
       position="150.51273"
       id="guide4581" />
    <sodipodi:guide
       orientation="horizontal"
       position="505.07627"
       id="guide4583" />
    <sodipodi:guide
       orientation="horizontal"
       position="441.43666"
       id="guide4587" />
  </sodipodi:namedview>
  <metadata
     id="metadata7">
    <rdf:RDF>
      <cc:Work
         rdf:about="">
        <dc:format>image/svg+xml</dc:format>
        <dc:type
           rdf:resource="http://purl.org/dc/dcmitype/StillImage" />
      </cc:Work>
    </rdf:RDF>
  </metadata>
  <g
     inkscape:label="BG"
     inkscape:groupmode="layer"
     id="layer1"
     style="display:inline">
    <path
       sodipodi:type="arc"
       style="opacity:0.90000006;fill:url(#linearGradient3651);fill-opacity:1;fill-rule:evenodd;stroke:none;stroke-width:3;stroke-linecap:butt;stroke-linejoin:round;stroke-miterlimit:4;stroke-dasharray:6, 3;stroke-dashoffset:0;stroke-opacity:1"
       id="path1874"
       sodipodi:cx="150"
       sodipodi:cy="150"
       sodipodi:rx="150"
       sodipodi:ry="150"
       d="M 300 150 A 150 150 0 1 1  0,150 A 150 150 0 1 1  300 150 z"
       transform="scale(0.4989847,0.4989847)" />
    <path
       d="M 300 150 A 150 150 0 1 1  0,150 A 150 150 0 1 1  300 150 z"
       sodipodi:ry="150"
       sodipodi:rx="150"
       sodipodi:cy="150"
       sodipodi:cx="150"
       id="path3659"
       style="opacity:0.90000006;fill:url(#linearGradient5139);fill-opacity:1;fill-rule:evenodd;stroke:none;stroke-width:3;stroke-linecap:butt;stroke-linejoin:round;stroke-miterlimit:4;stroke-dasharray:6, 3;stroke-dashoffset:0;stroke-opacity:1"
       sodipodi:type="arc"
       transform="scale(0.4989847,0.4989847)" />
  </g>
  <g
     inkscape:groupmode="layer"
     id="layer4"
     inkscape:label="Pfeil"
     style="opacity:1">
    <path
       sodipodi:nodetypes="cc"
       id="path8651"
       d="M 60.32555,92.752865 C 23.837587,22.063195 125.96372,22.854329 86.816105,93.304752"
       style="opacity:1;fill:#efff67;fill-opacity:1;fill-rule:evenodd;stroke:none;stroke-width:8.4913435;stroke-linecap:round;stroke-linejoin:round;stroke-miterlimit:4;stroke-dasharray:none;stroke-opacity:1" />
    <path
       style="fill:none;fill-rule:evenodd;stroke:#000000;stroke-width:3.12417221;stroke-linecap:round;stroke-linejoin:round;stroke-miterlimit:4;stroke-dasharray:none;stroke-opacity:1"
       d="M 60.32555,92.752865 C 23.837587,22.063195 125.96372,22.854329 86.816105,93.304752"
       id="path8649"
       sodipodi:nodetypes="cc" />
    <path
       style="fill:#d8d6b7;fill-opacity:1;fill-rule:evenodd;stroke:#000000;stroke-width:3.12417316;stroke-linecap:round;stroke-linejoin:round;stroke-miterlimit:4;stroke-dasharray:none;stroke-opacity:1"
       d="M 72.881098,129.54535 C 73.800906,131.43098 76.514351,130.78709 76.928273,129.59135"
       id="path8663" />
    <path
       style="fill:#e4e4e4;fill-opacity:1;fill-rule:evenodd;stroke:#000000;stroke-width:3.12417316;stroke-linecap:round;stroke-linejoin:round;stroke-miterlimit:4;stroke-dasharray:none;stroke-opacity:1"
       d="M 85.512318,100.03897 C 85.512318,100.03897 86.313961,101.89564 86.532341,104.16966 C 86.750708,106.44368 85.879904,108.03128 85.92589,108.62916 C 85.989481,109.45583 86.918636,111.52442 86.734675,112.44424 C 86.711776,113.77659 86.006711,115.05621 86.052707,116.02202 C 86.158099,116.84913 86.810995,118.20224 86.613157,119.28971 C 85.517541,121.94742 87.146078,122.09218 86.118419,123.71708 C 85.750497,124.36095 77.001195,129.5236 77.001195,129.5236 C 76.587282,129.66156 73.071595,129.60441 72.749661,129.51243 C 72.749661,129.51243 62.441235,123.8446 62.441235,123.33662 C 61.535693,121.21334 62.409889,120.66544 62.096307,117.93274 C 61.898584,116.64416 62.947126,115.05832 62.855153,114.09252 C 62.767945,113.17685 61.78299,111.19371 61.889343,110.18333 C 61.981331,109.3095 62.579214,107.00997 62.579214,106.32011 C 62.579214,105.3543 61.79737,103.46869 61.705388,102.87081 C 61.605256,102.21999 61.613404,98.363738 61.613404,98.363738"
       id="path8661"
       sodipodi:nodetypes="cscccccccccccccc" />
    <path
       style="fill:#f3f3f3;fill-opacity:1;fill-rule:evenodd;stroke:#000000;stroke-width:3.12417316;stroke-linecap:round;stroke-linejoin:round;stroke-miterlimit:4;stroke-dasharray:none;stroke-opacity:1"
       d="M 60.477361,92.982692 C 59.99589,93.945653 61.832055,99.350121 62.199981,99.718047 C 62.813577,100.33164 85.09806,100.46043 85.557964,100.00053 C 86.351889,99.206618 87.716079,93.704923 86.852241,93.211297 C 86.208371,92.843371 60.845288,92.246844 60.477361,92.982692 z "
       id="path8657"
       sodipodi:nodetypes="ccccc" />
    <path
       style="fill:url(#linearGradient4563);fill-opacity:1;fill-rule:evenodd;stroke:none;stroke-width:5;stroke-linecap:round;stroke-linejoin:round;stroke-miterlimit:4;stroke-dasharray:none;stroke-opacity:1"
       d="M 81.117519,51.574222 C 82.808573,50.923819 90.678471,52.940072 88.46709,66.468491 C 86.255719,79.996919 79.365265,80.259301 78.125662,79.54163 C 77.396411,79.295272 82.425648,72.861118 82.992514,66.079627 C 83.559371,59.298125 79.663842,52.169291 81.117519,51.574222 z "
       id="path8665"
       sodipodi:nodetypes="cscsc" />
    <path
       style="fill:url(#linearGradient4560);fill-opacity:1;fill-rule:evenodd;stroke:none;stroke-width:5;stroke-linecap:round;stroke-linejoin:round;stroke-miterlimit:4;stroke-dasharray:none;stroke-opacity:1"
       d="M 80.158166,102.80987 C 80.808572,102.84239 81.296375,104.3871 81.361418,104.92368 C 81.422169,105.42486 80.37008,107.58139 80.548412,108.30579 C 80.890027,109.69342 81.946787,109.80172 81.995563,111.21635 C 82.044348,112.63099 80.971172,112.66351 80.857359,114.07814 C 80.743535,115.49276 81.995563,115.59033 82.093129,117.16755 C 82.190685,118.74479 79.094331,121.76696 78.58094,121.65535 C 77.458994,121.41144 81.068739,118.66349 80.499636,117.00495 C 79.930525,115.34642 78.971182,114.43586 79.166304,113.98057 C 79.361427,113.52529 80.697399,111.77207 80.629717,111.28139 C 80.564679,110.80985 79.089106,109.04338 79.003706,108.58222 C 78.922406,108.1432 79.901234,105.68889 79.881743,105.0375 C 79.767931,104.4684 77.94679,103.00499 78.141914,102.5497 C 78.337037,102.09442 79.638249,102.78386 80.158166,102.80987 z "
       id="path8681"
       sodipodi:nodetypes="ccssssssssscsc" />
    <path
       style="fill:url(#linearGradient4557);fill-opacity:1;fill-rule:evenodd;stroke:none;stroke-width:5;stroke-linecap:round;stroke-linejoin:round;stroke-miterlimit:4;stroke-dasharray:none;stroke-opacity:1"
       d="M 79.426465,93.590375 C 80.467117,93.135097 82.884794,95.194721 82.678488,97.102564 C 82.515884,98.631019 79.686636,99.801747 78.385823,99.801747 C 77.085005,99.801747 79.393941,97.980608 79.556546,96.874923 C 79.719145,95.769232 78.506717,93.992772 79.426465,93.590375 z "
       id="path8709"
       sodipodi:nodetypes="ccssc" />
    <path
       style="fill:none;fill-rule:evenodd;stroke:#000000;stroke-width:3.12417316;stroke-linecap:round;stroke-linejoin:round;stroke-miterlimit:4;stroke-dasharray:none;stroke-opacity:1"
       d="M 103.00492,75.092508 L 115.51436,79.323645"
       id="path8719"
       sodipodi:nodetypes="cc" />
    <path
       style="fill:none;fill-rule:evenodd;stroke:#000000;stroke-width:3.12417316;stroke-linecap:round;stroke-linejoin:round;stroke-miterlimit:4;stroke-dasharray:none;stroke-opacity:1"
       d="M 99.325676,44.186851 L 110.73134,37.564209"
       id="path8721"
       sodipodi:nodetypes="cc" />
    <path
       style="fill:none;fill-rule:evenodd;stroke:#000000;stroke-width:3.12417316;stroke-linecap:round;stroke-linejoin:round;stroke-miterlimit:4;stroke-dasharray:none;stroke-opacity:1"
       d="M 69.707745,34.620813 L 66.396423,21.743452"
       id="path8723"
       sodipodi:nodetypes="cc" />
    <path
       style="fill:none;fill-rule:evenodd;stroke:#000000;stroke-width:3.12417316;stroke-linecap:round;stroke-linejoin:round;stroke-miterlimit:4;stroke-dasharray:none;stroke-opacity:1"
       d="M 43.21718,51.913272 L 31.259628,44.922701"
       id="path8725"
       sodipodi:nodetypes="cc" />
    <path
       style="fill:none;fill-rule:evenodd;stroke:#000000;stroke-width:3.12417316;stroke-linecap:round;stroke-linejoin:round;stroke-miterlimit:4;stroke-dasharray:none;stroke-opacity:1"
       d="M 42.665288,80.059502 L 28.500194,87.417995"
       id="path8727"
       sodipodi:nodetypes="cc" />
  </g>
  <g
     inkscape:groupmode="layer"
     id="layer2"
     inkscape:label="Shadow"
     style="display:inline">
    <path
       d="M 300 150 A 150 150 0 1 1  0,150 A 150 150 0 1 1  300 150 z"
       sodipodi:ry="150"
       sodipodi:rx="150"
       sodipodi:cy="150"
       sodipodi:cx="150"
       id="path3662"
       style="opacity:0.90000006;fill:url(#radialGradient4560);fill-opacity:1;fill-rule:evenodd;stroke:none;stroke-width:0.30000001;stroke-linecap:butt;stroke-linejoin:round;stroke-miterlimit:4;stroke-dasharray:none;stroke-dashoffset:0;stroke-opacity:1"
       sodipodi:type="arc"
       transform="scale(0.4989847,0.4989847)" />
  </g>
  <g
     inkscape:groupmode="layer"
     id="layer3"
     inkscape:label="Spot">
    <path
       d="M 300 150 A 150 150 0 1 1  0,150 A 150 150 0 1 1  300 150 z"
       sodipodi:ry="150"
       sodipodi:rx="150"
       sodipodi:cy="150"
       sodipodi:cx="150"
       id="path4563"
       style="opacity:0.90000006;fill:url(#linearGradient4573);fill-opacity:1;fill-rule:evenodd;stroke:none;stroke-width:3;stroke-linecap:butt;stroke-linejoin:round;stroke-miterlimit:4;stroke-dasharray:6, 3;stroke-dashoffset:0;stroke-opacity:1"
       sodipodi:type="arc"
       transform="matrix(0.3175264,0,0,0.2301577,27.218738,1.9959388)" />
    <path
       style="opacity:0.90000006;fill:none;fill-opacity:1;fill-rule:evenodd;stroke:none;stroke-width:3;stroke-linecap:butt;stroke-linejoin:round;stroke-miterlimit:4;stroke-dasharray:6, 3;stroke-dashoffset:0;stroke-opacity:1"
       id="path4589"
       d="M 384.1892,187.14574 C 384.46238,186.03869 383.97345,184.98931 383.86634,183.91875 C 383.70869,181.94522 383.24639,180.03459 382.90157,178.09439 C 382.4625,175.35216 383.4653,173.03482 384.36773,170.56071 C 385.55619,168.56882 387.41281,167.22772 389.15669,165.77731 C 395.94853,159.85945 400.44435,158.81147 407.19766,156.48323 C 409.09474,156.0417 411.02537,156.33619 412.90954,156.38367 C 414.85514,156.57474 416.61493,157.39986 418.40925,158.07244 C 419.79284,158.74584 421.00603,159.73878 422.24894,160.62708 C 423.68559,161.90061 425.47237,162.56455 427.1982,163.33507 C 428.88609,164.08352 430.26215,165.26513 431.71796,166.35843 C 432.92285,167.19147 434.22952,167.82458 435.48552,168.57646 C 436.72464,169.40864 437.75506,170.47724 438.88526,171.43881 C 440.17498,172.42322 441.45314,173.41745 442.72498,174.42786 C 444.01193,175.41801 444.97325,176.69653 446.03671,177.88535 C 447.31596,179.77656 447.54296,181.95572 447.93451,184.12833 C 448.11594,186.47531 448.09369,188.83068 448.11128,191.18263 C 448.14929,193.25615 448.08496,195.32924 448.03622,197.39954 C 447.63642,199.12859 447.47691,200.89136 447.23305,202.64272 C 447.08069,204.6034 447.10903,206.5708 447.08297,208.5353 C 447.02025,210.48575 447.12536,212.43908 447.17022,214.38286 C 447.24883,215.94728 448.06333,217.2851 448.56898,218.7133 C 449.13651,220.11366 449.81076,221.48198 450.40472,222.86177 C 451.14075,224.28935 452.1706,225.52006 453.08209,226.82217 C 454.76086,229.01019 457.09243,230.36998 459.31071,231.88316 C 461.12305,233.13153 463.11583,234.0281 465.09557,234.95669 C 467.33419,235.81099 469.47,236.9654 471.65349,237.97726 C 473.52404,239.11832 475.63934,239.57048 477.72785,240.10224 C 479.65781,240.78957 481.69613,240.79835 483.70182,241.00834 C 485.85557,240.90191 487.94218,241.20863 490.06501,241.45195 C 492.36439,241.86983 494.69742,241.92511 497.02337,242.03951 C 499.78182,242.25841 502.49513,241.89216 505.2285,241.58092 C 508.18547,241.34113 511.0786,240.85247 513.92556,240.31055 C 517.48005,239.20512 521.07224,238.21094 524.64795,237.17777 C 529.23729,235.65843 533.46224,233.20013 537.68959,230.88123 C 544.8923,226.69323 532.05978,234.14364 529.22776,235.74481 C 526.64135,237.20712 534.24597,232.56157 536.72576,230.92496 C 539.76735,228.6788 542.03754,225.67749 544.33731,222.72569 C 546.05571,220.66137 547.61016,218.47801 549.1696,216.29646 C 550.45057,214.58334 550.48276,212.56847 550.87622,210.58359 C 551.06467,209.02969 550.08969,207.84439 549.57277,206.49543 C 548.92536,204.64313 547.75409,203.10413 546.7693,201.44282 C 545.37257,199.67753 543.50445,198.42135 541.72905,197.07847 C 540.03088,195.1527 537.95647,193.69327 535.91868,192.17065 C 533.44097,190.55114 530.75188,189.31373 528.06587,188.088 C 525.30483,186.85235 522.42779,186.11999 519.50883,185.42846 C 517.45754,185.12389 515.38218,185.19925 513.31681,185.16632 C 511.08605,184.99531 508.93418,185.33599 506.75315,185.72466 C 503.85814,185.71453 501.23331,186.48464 498.52066,187.37491 C 496.64215,188.27872 494.73017,189.10917 492.83594,189.9807 C 496.5985,187.84474 500.36107,185.70877 504.12363,183.57281 C 503.67696,183.86127 503.2303,184.14974 502.78363,184.4382 C 499.61702,186.1602 496.92867,188.3455 494.36327,190.84122 C 491.74686,193.15827 489.71463,195.88085 487.84124,198.7983 C 485.77571,201.93877 483.98476,205.1877 482.36153,208.57044 C 480.83881,212.09856 479.95179,215.84951 478.96215,219.54849 C 477.62041,223.10775 477.03868,226.82267 476.57355,230.57008 C 476.30966,233.633 476.34044,236.70809 476.32184,239.77882 C 476.29306,242.85828 476.32719,245.93793 476.34102,249.0174 C 476.33766,251.83967 476.34446,254.66191 476.35794,257.48426 C 476.19951,261.50322 476.26424,265.52525 476.42439,269.53857 C 476.77134,271.78832 477.02171,274.04606 477.25699,276.30856 C 477.34905,278.85809 477.35859,281.40942 477.38357,283.96016 C 477.39597,286.09718 477.39403,288.23423 477.39473,290.37127 C 477.39418,292.39069 477.39388,294.4101 477.39349,296.42952 C 477.46322,298.201 476.73418,299.77891 476.24022,301.42068 C 475.81458,303.35244 474.78524,304.99794 473.85724,306.69974 C 471.77788,309.62277 468.81243,311.4953 465.87889,313.43377 C 458.69114,318.16676 450.9049,322.11032 443.42596,326.19196 C 439.53816,327.09109 435.74192,328.1811 431.97473,329.49132 C 427.35962,331.37579 422.65502,333.01769 417.94198,334.62991 C 413.62734,336.407 409.25628,337.93857 404.75442,339.14839 C 400.632,340.14739 396.57403,341.33235 392.467,342.38758 C 387.89533,343.65895 383.24534,344.48867 378.55956,345.18038 C 374.19004,345.45557 369.85119,346.01972 365.49378,346.42265 C 361.41429,347.08731 357.29083,347.36948 353.17048,347.62662 C 349.61944,347.83599 346.13964,348.75394 342.63747,349.37623 C 340.35886,349.49299 338.14058,349.95235 335.91034,350.27436 C 333.6763,350.94794 333.20735,349.71866 331.69046,348.71465 C 329.76834,340.59529 343.0913,341.53698 348.15504,339.10712 C 350.66016,338.6815 353.158,338.00038 355.6853,337.48519 C 358.5783,337.0684 361.5027,337.07528 364.41772,337.05246 C 368.7231,337.0641 373.02848,337.07837 377.33385,337.09682 C 382.97269,337.12353 388.61159,337.12856 394.25048,337.1346 C 400.73166,336.99353 407.19482,337.50316 413.66358,337.80633 C 421.51403,337.95171 429.35201,338.28807 437.19395,338.66823 C 444.62966,339.04479 452.04958,339.63357 459.49078,339.93434 C 469.66047,340.25192 479.81512,340.94441 489.97352,341.51449 C 499.9374,342.00133 509.85399,343.29918 519.7531,344.5106 C 527.07682,345.25245 534.37993,346.14338 541.67853,347.09572 C 547.49861,348.3039 553.33956,349.39563 559.20053,350.37813 C 563.70908,350.97447 568.21293,351.60645 572.70266,352.33185 C 576.31324,352.74687 579.78919,353.86227 583.2829,354.80379 C 585.83091,355.36926 587.63665,357.12033 589.5374,358.71058 C 591.48556,366.09396 579.09945,368.04883 572.97904,368.03433 C 569.33359,368.62999 565.6398,368.69623 561.95692,368.82034 C 556.55857,369.01831 551.16935,369.44265 545.77134,369.70357 C 538.24965,369.90279 530.8886,371.21657 523.57993,372.90144 C 516.19102,374.45583 508.83019,376.12418 501.46081,377.76507 C 494.13199,379.20334 486.91893,381.06779 479.8253,383.39391 C 471.07334,386.13726 462.77574,390.10942 454.42635,393.86084 C 447.471,396.97559 440.72904,400.52218 433.78966,403.67384 C 437.86896,401.10176 416.86309,412.92356 421.05657,410.5422 C 430.39186,405.24096 433.95009,403.02531 427.66841,406.86948 C 422.58898,410.43362 417.72151,414.28951 412.71179,417.9541 C 409.11231,420.73437 405.68548,423.72385 402.13378,426.56157 C 399.69679,428.23452 397.61076,430.32251 395.47843,432.3374 C 394.44721,433.74718 393.13138,434.89246 391.8824,436.09628 C 391.22049,435.76429 393.4868,436.02859 393.88599,436.01175 C 395.70755,435.94075 397.47713,436.38459 399.25397,436.73742 C 401.4958,436.89508 403.75971,436.37269 405.97585,436.07505 C 409.17475,435.69704 412.29952,434.91612 415.40921,434.15628 C 418.45728,432.97967 421.65562,432.42903 424.85355,431.86993 C 428.66217,431.1108 432.5004,430.56803 436.35854,430.15122 C 439.84617,430.36538 443.02815,432.11044 446.2404,433.39628 C 450.58721,435.25389 454.81091,437.37091 459.15976,439.23394 C 465.94977,441.41265 472.92992,442.98643 479.91421,444.41038 C 485.50617,445.56199 491.19343,445.91646 496.87975,446.16357 C 501.24702,446.25597 505.61537,446.21925 509.98322,446.21287 C 514.25619,446.17629 518.52937,446.18838 522.80244,446.19337 C 527.26831,446.57546 531.49535,445.86834 535.82005,444.90836 C 541.05032,443.42261 546.35408,442.23771 551.56935,440.73847 C 555.36836,439.60054 558.99905,437.99148 562.57636,436.29944 C 565.23341,434.83566 567.95437,433.54295 570.73997,432.33425 C 566.72399,434.62415 562.70119,436.90214 558.69203,439.20395 C 554.34969,441.69705 567.9947,435.49609 572.65959,433.67669 C 571.57854,436.71862 571.57932,440.02963 571.39818,443.22843 C 570.83304,448.03171 572.06937,452.64085 573.20935,457.25084 C 574.19862,461.33045 575.74832,465.162 577.55514,468.92865 C 579.58561,472.27419 581.5546,475.6551 583.65443,478.95867 C 584.99472,480.6749 586.11699,482.53959 587.28399,484.36461 C 588.38226,486.41169 588.96105,488.63234 589.60547,490.82658 C 589.96853,492.52817 589.45046,494.11023 589.15137,495.75535 C 590.57804,511.06373 577.45886,501.44633 572.74481,503.53602 C 570.5312,503.41628 568.31397,503.41792 566.09804,503.39552 C 563.30157,502.90519 560.47035,502.65467 557.65422,502.32893 C 554.31224,501.91527 550.99025,501.40381 547.66167,500.89886 C 542.01541,500.62422 536.50739,499.40845 530.94958,498.44348 C 522.34444,496.60092 513.56116,495.63563 504.97676,493.71358 C 500.87387,492.78993 496.92308,491.32059 492.9721,489.90864 C 490.58066,489.19518 488.46923,487.9464 486.36263,486.67817 C 485.07586,486.18699 484.6672,484.82547 483.82216,483.90205 C 483.16473,482.70891 481.64058,482.98062 480.72727,482.59486 C 478.60158,482.82785 476.54182,483.43429 474.46567,483.92359 C 472.18053,484.90447 469.71885,485.06533 467.29064,485.40203 C 462.0344,486.53624 456.73749,487.44785 451.425,488.26447 C 446.15503,489.27582 440.81525,489.67858 435.47089,490.01039 C 430.87246,490.49823 426.26123,490.8226 421.64554,491.08434 C 418.25216,491.21452 414.85676,491.23008 411.46164,491.25744 C 409.06877,491.26854 406.67587,491.26987 404.28298,491.27257 C 402.24786,491.27369 400.21273,491.2733 398.17761,491.27335 C 394.84193,491.89387 403.51276,487.03067 406.47846,485.38249 C 405.48031,486.64853 404.18112,487.53891 402.95176,488.55838 C 401.79923,489.54113 400.77962,490.66494 399.71505,491.73815 C 395.09848,496.74867 391.87472,497.1019 383.79991,501.41651 C 382.26298,499.7404 381.94454,497.5462 381.40544,495.39264 C 380.43238,491.02527 379.10393,486.79348 377.59305,482.58991 C 375.79403,476.89127 373.31602,471.60748 370.45268,466.37801 C 366.52976,459.8056 362.26577,453.41391 357.54891,447.38332 C 353.69302,442.56021 349.60642,437.91592 345.47411,433.33563 C 342.34798,429.86086 338.46232,427.22535 334.74183,424.44392 C 332.96737,423.0827 331.19625,421.71542 329.44609,420.33916 C 328.39835,419.20572 327.11779,418.34529 325.96683,417.33174 C 324.53411,416.55637 322.90074,416.68534 321.3361,416.53181 C 317.81421,417.24794 327.78281,413.35271 331.01512,411.78149 C 330.13689,413.27549 330.15105,414.9997 329.89636,416.65951 C 329.68031,418.37356 329.05196,419.9732 328.5783,421.61142 C 327.43683,423.82634 325.50266,425.36191 323.69262,426.997 C 322.08109,428.37319 320.36384,429.62523 318.66774,430.89419 C 276.84657,454.97808 339.51901,419.32249 299.31497,441.95298 C 303.24665,439.71135 307.17283,437.46003 311.11001,435.22808 C 312.24821,434.58285 308.90196,436.63235 307.80473,437.34503 C 302.85725,440.55855 297.59825,443.26504 292.47925,446.19763 C 289.54084,447.52983 286.30457,447.57143 283.14024,447.76897 C 279.011,447.84849 274.88072,447.80284 270.75112,447.78395 C 266.23898,447.77755 261.72683,447.77265 257.21469,447.76571 C 252.51056,447.48286 247.82035,447.09247 243.13723,446.57439 C 238.69824,446.0148 234.32351,444.94217 229.92169,444.10784 C 225.85236,443.48167 221.83616,442.6567 217.84736,441.65738 C 213.24645,440.43441 208.88579,438.36562 204.56444,436.38537 C 199.76423,434.20515 194.8997,432.17174 189.98494,430.26671 C 181.0104,426.61802 188.48227,425.88909 199.40477,419.76114 C 202.84422,419.88189 206.28745,419.89591 209.72864,419.94407 C 217.27216,420.01612 224.81607,420.01579 232.35986,420.02325 C 241.44867,419.82293 250.50306,418.84235 259.53464,417.85241 C 269.75574,416.87787 279.82418,415.11847 289.83227,412.86006 C 299.43323,410.84169 308.98366,408.66889 318.5104,406.32265 C 326.56661,404.11969 334.86085,403.01406 343.00295,401.23462 C 347.92732,399.97808 352.96353,399.34322 358.0071,398.827 C 360.25989,398.64168 362.52091,398.63013 364.7792,398.5822 C 370.60261,424.4692 351.85914,403.64107 349.89984,404.47086 C 345.95227,401.70269 342.07161,398.84283 338.19485,395.97662 C 331.78341,391.10041 324.97679,386.77184 318.28658,382.29346 C 310.24487,377.35145 301.72903,373.28727 293.14108,369.40236 C 284.41833,365.62992 275.78371,361.75846 266.79554,358.64074 C 259.79886,355.83567 252.6595,353.417 245.49474,351.08479 C 242.25551,349.88517 239.06948,348.46883 236.08802,346.83909 C 243.76486,338.07707 248.74538,337.81407 258.83843,337.49709 C 265.74501,337.28026 272.65508,337.18915 279.5647,337.1405 C 283.89165,337.06924 288.22,337.03372 292.53626,337.21431 C 295.44713,336.98759 296.15603,338.54119 297.94997,340.05678 C 298.50375,341.72158 298.05549,343.42919 297.86597,345.12299 C 297.61704,347.37158 297.62471,349.63497 297.56631,351.8928 C 297.22156,354.60706 297.85598,357.06253 298.46671,359.65702 C 299.85391,362.82673 300.88715,366.09467 301.82448,369.41898 C 303.3142,372.92196 304.59239,376.47342 305.65006,380.12058 C 306.64873,383.751 307.47948,387.42213 308.3896,391.07531 C 309.25657,394.17069 309.37075,397.37579 309.60805,400.5576 C 309.82286,403.83679 309.41359,407.10341 309.08625,410.35975 C 308.66602,414.70444 307.27802,418.79473 305.80896,422.86877 C 303.84121,428.51882 301.39147,433.95289 298.87304,439.37257 C 294.88596,447.79012 291.53738,456.49073 288.19834,465.18032 C 286.41321,469.66374 285.22184,474.33982 284.03443,479.00574 C 281.74099,487.72765 282.86434,483.79669 269.53062,491.30638 C 268.34513,488.94069 266.92867,486.70469 265.54685,484.44924 C 262.10145,479.84753 257.70722,476.07348 253.11378,472.66149 C 246.13004,467.50422 238.40813,463.50721 230.80954,459.36272 C 221.8637,454.2215 212.53496,449.92499 202.98468,446.0526 C 195.13109,442.63623 186.83988,440.55989 178.52963,438.62374 C 172.85488,437.22557 167.03869,436.93114 161.23022,436.68028 C 157.66182,436.38248 154.14384,436.68561 150.64411,437.09941 C 150.81822,429.23671 161.54317,431.05932 165.0452,429.09471 C 167.74072,429.59148 170.47538,429.71867 173.20281,429.89584 C 176.07936,430.02182 175.13577,431.45319 176.10585,432.99667 C 175.1305,434.18111 175.0137,435.63865 174.59471,437.03137 C 173.88128,438.68547 174.27142,440.22117 174.32906,441.88785 C 174.89062,444.50142 176.57988,445.30069 178.60616,446.57559 C 181.15999,446.91114 183.14431,445.55365 185.42581,444.54852 C 190.78078,442.02998 196.23233,439.76642 201.78887,437.72353 C 209.19313,434.55961 216.65076,431.5204 224.104,428.46902 C 233.63962,424.49955 242.66352,419.58439 251.66901,414.55781 C 264.54668,407.2969 258.94208,409.88401 286.36038,394.60124 C 298.8892,387.45022 312.10783,381.61231 325.46193,376.19998 C 338.67388,371.07689 351.6826,365.4516 365.04582,360.72871 C 378.9956,356.06322 393.12357,351.94836 407.40321,348.42368 C 420.87963,344.82923 434.52815,342.11172 448.38489,340.55825 C 464.00115,339.72813 479.63879,339.47924 495.27324,339.28436 C 505.48588,339.40536 515.71209,339.01231 525.92183,339.30154 C 529.22767,338.98533 532.24094,339.98479 535.27008,340.84326 C 536.23848,348.77104 525.02876,349.85649 518.99528,349.83648 C 514.05085,349.88175 509.12762,349.76412 504.20703,349.26839 C 495.75737,347.69837 487.34425,345.84358 479.06616,343.53089 C 467.88462,340.45659 456.78211,337.09306 445.81584,333.32259 C 433.40632,329.16812 421.53395,323.65078 409.90702,317.68803 C 399.33801,311.81299 389.19484,305.31262 379.84434,297.64704 C 372.38843,291.33465 366.9005,283.43821 362.984,274.56393 C 359.99555,267.58996 359.46438,260.21335 359.25385,252.74099 C 359.19429,243.07103 359.10071,233.40386 359.69435,223.74896 C 360.46409,214.27002 362.24383,204.89774 364.22156,195.60548 C 365.87694,188.85605 368.74174,182.54298 371.82069,176.36317 C 374.46661,171.78635 377.98446,167.86305 381.57265,164.03507 C 384.91247,160.96729 388.59658,158.34344 392.31967,155.77378 C 400.02316,151.02725 407.75081,146.24648 416.2106,143.03674 C 419.55406,141.97761 422.89155,140.90043 426.27266,139.96338 C 431.78461,137.58428 444.52021,129.96055 421.59128,143.09945 C 423.4013,142.1597 424.54517,140.50154 425.87861,139.0626 C 427.02364,137.45484 427.47693,135.52544 428.14409,133.70954 C 428.94923,131.35572 429.20435,128.90512 429.54141,126.46211 C 428.78178,115.53795 423.22761,105.66268 417.94337,96.259584 C 413.41693,88.154367 407.32673,81.198364 401.28638,74.225579 C 396.00862,68.371794 390.8636,62.411384 385.74297,56.420498 C 381.63715,51.907357 378.32977,46.840142 375.37375,41.538979 C 373.76689,39.15827 373.04593,36.517042 372.33464,33.804008 C 371.05508,26.008614 385.85719,26.658011 387.75837,25.994527 C 391.1951,29.252128 393.96347,33.100384 396.64159,36.981953 C 401.28661,43.773899 405.53094,50.827866 409.74925,57.889285 C 415.9821,68.356833 422.89024,78.375398 430.01601,88.24753 C 440.2671,102.29638 451.17691,115.81868 462.69387,128.84377 C 471.38376,138.76674 480.91283,147.89033 491.39464,155.89062 C 498.4491,161.47133 506.4011,165.63106 514.52457,169.39709 C 519.5245,171.6611 524.77309,173.09226 530.13742,174.11285 C 533.10895,174.94941 535.68586,173.9926 538.54461,173.21728 C 544.08625,171.09034 553.43588,165.22104 530.85834,178.14474 C 536.13164,174.24378 541.87248,171.15814 547.8687,168.77983 C 549.76003,168.43135 551.69836,168.31408 553.60496,168.14906 C 556.72119,167.23524 559.80354,166.25341 562.94889,165.43579 C 567.18937,164.97143 571.28671,163.8052 575.40377,162.73229 C 579.77179,161.54235 584.01426,160.00563 588.20214,158.31071 C 592.22294,156.48901 596.23367,154.75147 600.10204,152.62411 C 604.41251,150.40475 608.72621,148.15817 613.05839,145.95557 C 616.83129,143.91867 620.95936,142.79019 625.0161,141.49596 C 628.91141,139.90739 632.80857,138.39024 636.82271,137.13082 C 639.40783,136.46756 641.83185,135.35571 644.21028,134.24957 C 632.17273,154.80789 635.55249,139.14052 629.18628,142.73692 C 624.98645,142.66214 620.78577,142.68698 616.58551,142.6831 C 612.20799,142.96968 607.91762,142.06968 603.57779,141.92878 C 597.73808,143.57975 587.2237,150.13227 609.31923,137.61235 C 606.89265,139.3631 604.65384,141.36967 602.41843,143.35549 C 597.02436,148.69485 591.88169,150.61023 584.42674,154.76605 C 582.20454,155.04808 579.95334,154.92002 577.71923,154.90503 C 573.87294,154.7991 570.03004,154.84974 566.19137,155.00492 C 559.93542,155.60252 548.45739,162.31595 568.9048,151.32895 C 565.01338,154.08236 562.02773,157.70009 559.17965,161.45663 C 557.4571,162.86655 558.22969,164.46675 558.02138,165.97904 C 559.64359,167.98783 561.42267,169.8403 563.24931,171.66196 C 566.98348,175.29515 571.07618,178.5278 574.96535,181.98879 C 580.83944,187.1192 586.31304,192.67227 591.68475,198.31867 C 602.28604,210.54442 612.54311,223.10829 623.08402,235.408 C 629.91828,243.57572 637.2036,251.31452 644.69506,258.8746 C 648.32931,262.65774 652.31573,265.98054 656.5828,269.00953 C 658.87945,270.34909 661.16414,271.68587 663.40718,273.10459 C 666.67037,275.20912 670.22179,276.80158 673.74569,278.40881 C 677.67383,280.33985 681.75717,281.73173 685.95514,282.9229 C 690.16955,283.78424 694.34832,284.55787 698.46131,285.82274 C 701.23859,286.2326 703.43885,287.84596 705.74387,289.19058 C 708.39071,296.55303 695.07569,298.71893 688.86567,299.98055 C 680.00637,301.72898 671.03118,302.72711 662.23354,304.77911 C 654.30749,306.76455 646.2269,308.43212 638.54564,311.25308 C 633.12307,313.33848 628.03162,316.08746 622.96466,318.89751 C 626.20435,317.03276 635.92586,311.44274 632.68373,313.30325 C 588.35067,338.74411 641.45405,306.59652 622.58371,319.83052 C 572.65508,349.47819 645.35062,307.10246 602.76303,331.74298 C 622.45788,320.42724 611.27593,326.72874 597.24435,334.30387 C 595.16316,334.7443 593.03456,334.67563 590.92274,334.70901 C 587.44986,334.63326 583.98209,334.68742 580.51487,334.79729 C 574.5705,335.18471 568.62006,335.38998 562.67515,335.77429 C 554.90203,336.11356 547.11487,336.44557 539.48312,338.03558 C 532.569,339.58546 526.02051,342.24661 519.51185,344.98019 C 514.51962,346.46143 509.97971,348.87349 505.46073,351.3905 C 526.08158,338.3677 516.23596,345.18263 511.72284,348.58038 C 510.27341,348.07832 512.46578,348.5696 513.10762,348.56029 C 515.66591,348.63313 517.75929,349.79535 519.98872,350.90549 C 522.33064,351.85475 524.64017,352.86647 526.98034,353.81896 C 529.3132,354.23208 530.42351,355.93454 531.99479,357.30632 C 532.95628,359.10691 532.80776,361.11088 532.98034,363.06837 C 533.00371,365.09465 532.97983,367.12116 532.9673,369.14746 C 532.95537,371.17011 532.95479,373.1928 532.95217,375.21547 C 532.58198,380.3398 532.9255,385.44264 533.3424,390.54536 C 534.11432,396.47243 535.96053,402.14073 538.08606,407.69018 C 539.31149,410.21042 540.97492,412.40762 542.6355,414.63247 C 543.61623,416.38862 545.40435,417.19126 546.85693,418.23429 C 550.62718,416.10422 538.88656,421.62978 534.98065,423.49952 C 534.81069,421.9486 535.612,420.64277 536.03286,419.22572 C 536.11614,417.34142 534.42682,416.47081 533.2052,415.25475 C 529.76431,412.09348 525.83515,409.5371 522.0419,406.82863 C 516.28305,403.34587 510.72341,399.55364 505.08357,395.88103 C 497.55544,391.08043 489.6357,386.92691 481.69767,382.85346 C 471.93672,378.35354 462.246,373.69546 452.29518,369.6253 C 441.87582,365.40598 431.54352,360.98226 421.14088,356.72305 C 408.54955,351.26052 395.75768,346.27786 383.09471,340.98337 C 376.08808,338.26603 369.20602,335.30482 362.44729,332.02662 C 358.35267,330.43049 354.69308,328.33057 351.22558,325.68143 C 349.03449,324.21405 347.98874,322.04736 346.77696,319.84271 C 345.69056,317.24697 345.0527,314.57576 344.51449,311.82358 C 343.84421,307.61746 344.14074,303.39318 344.40498,299.17196 C 344.77667,294.18245 344.86744,289.18054 344.94953,284.18025 C 344.98229,279.80989 344.9738,275.43951 344.97552,271.0691 C 345.12965,267.17592 344.8958,263.32731 344.41845,259.47205 C 343.59258,256.22418 342.64968,253.0168 341.5962,249.83565 C 340.3593,246.72897 339.04184,243.65722 337.78128,240.56312 C 336.72357,238.17037 337.1108,235.98626 337.35012,233.57591 C 341.70807,225.90606 348.45615,224.18689 356.75433,219.4084 C 332.70742,233.49772 357.92507,217.28268 366.49119,214.53346 C 367.09399,214.32076 367.69679,214.10807 368.29959,213.89538 C 366.45675,215.47711 376.97309,209.53992 374.88817,210.78534 C 372.4504,212.24155 369.9362,213.56583 367.46021,214.95608 C 373.19856,211.78489 378.11978,207.44449 383.17202,203.32181 C 387.85055,199.06933 392.80236,195.17607 398.04543,191.65006 C 406.73879,186.01296 415.62793,180.67752 425.19597,176.6987 C 430.90044,174.2118 437.06156,173.23062 443.1661,172.26997 C 447.10605,171.6389 451.08641,171.49516 455.06318,171.33667 C 458.90341,170.41705 448.17914,175.21334 444.65082,176.98647 C 443.29705,174.01302 441.39904,171.35284 439.55873,168.67084 C 436.05082,163.45269 432.45861,158.25857 428.51607,153.35552 C 423.37783,146.43455 416.73853,140.9887 410.52629,135.08845 C 403.08595,127.83218 395.32037,120.91685 387.49498,114.08094 C 378.86683,106.61878 369.66699,99.849892 360.52967,93.031383 C 351.37596,86.372986 341.87207,80.249779 332.32381,74.179332 C 323.70712,68.594599 314.92049,63.285198 306.14202,57.962309 C 299.38928,54.237175 292.80483,50.218188 286.10764,46.396205 C 282.46374,44.634196 278.91904,42.804518 275.67423,40.397959 C 273.3713,38.789424 273.36764,36.664537 272.69197,34.340332 C 272.68641,31.690173 274.07468,29.601509 275.33916,27.373936 C 277.45881,23.661915 279.95804,20.214852 282.53663,16.81694 C 285.51188,13.028123 288.75294,9.457298 291.98415,5.8874294 C 295.36766,1.9010227 298.7948,-2.0303755 302.34329,-5.8732388 C 307.74722,-11.21892 313.39579,-16.312821 319.0964,-21.33883 C 325.08637,-26.298249 331.05008,-31.286347 337.14215,-36.120617 C 342.21625,-39.873797 347.37502,-43.505287 352.37663,-47.359513 C 357.50534,-51.190717 362.58642,-55.083631 367.63774,-59.016136 C 372.0849,-62.412194 376.26121,-66.118158 380.33988,-69.939723 C 383.0494,-72.394094 385.25351,-75.294676 387.47486,-78.17462 C 389.80735,-80.926914 388.18401,-81.185308 387.67146,-83.185469 C 379.48209,-87.740918 370.17528,-89.89954 361.12434,-92.072998 C 352.45999,-93.975664 343.64228,-94.958991 334.82502,-95.814076 C 325.2637,-96.436864 315.83863,-98.357972 306.41841,-100.03533 C 296.41384,-102.164 286.2115,-102.99957 276.09119,-104.35042 C 265.29004,-105.6792 254.49185,-107.03301 243.68466,-108.31124 C 233.37147,-109.56936 223.16318,-111.51765 212.84449,-112.74291 C 204.40355,-113.582 195.94852,-114.24667 187.50235,-115.02531 C 182.31511,-115.52556 177.10881,-115.72028 171.90177,-115.8413 C 170.19807,-115.98638 168.16567,-115.84471 166.63558,-115.83795 C 179.4872,-124.71635 176.48444,-127.16151 183.04436,-120.62882 C 187.60018,-116.38167 192.51819,-112.56038 197.53149,-108.87411 C 205.18328,-103.82891 212.91022,-98.908096 220.50254,-93.760906 C 237.04988,-81.47398 254.40006,-70.45523 272.20628,-60.097996 C 288.23183,-50.768048 304.78815,-42.398049 321.22322,-33.822796 C 336.07625,-26.718652 348.82131,-16.370162 361.88646,-6.5078065 C 371.33388,1.0046294 381.05594,8.4928244 388.013,18.481266 C 390.77476,22.445578 391.28566,26.860611 391.6026,31.518689 C 391.89799,35.0664 391.36011,38.538595 390.76255,42.010221 C 389.66911,45.631871 388.06662,49.038711 386.40052,52.416226 C 384.46313,55.635941 382.46154,58.81589 380.44779,61.986765 C 378.69072,64.568493 377.04446,67.226661 375.365,69.858002 C 373.94422,71.949867 372.37164,73.920399 370.80323,75.898807 C 369.48529,77.383486 368.86455,79.260947 368.0762,81.042318 C 367.14706,83.054113 366.86289,85.217248 366.4817,87.367324 C 366.10651,90.34827 366.28645,93.307285 366.53528,96.280531 C 367.27553,101.0302 368.78623,105.54515 370.42509,110.03941 C 372.32058,115.77155 374.1328,121.49763 376.43006,127.08352 C 379.11654,133.35553 381.72001,139.66379 384.44533,145.91886 C 387.10959,151.74366 389.9792,157.46607 392.96383,163.12813 C 395.8504,168.44654 399.36132,173.33689 403.03617,178.12217 C 406.50543,182.40427 410.63383,186.01601 414.64815,189.75885 C 417.70411,192.44565 420.92517,194.92811 424.06038,197.5162 C 430.65607,204.63768 424.98948,203.20495 413.20303,210.15365 C 408.54257,210.71405 403.86178,210.9709 399.17023,211.11322 C 391.09775,211.29303 383.02263,211.2793 374.94865,211.27042 C 365.99552,211.25655 357.04248,211.26498 348.08938,211.28379 C 340.79409,210.91715 333.68109,211.53174 326.57157,213.09905 C 319.90432,214.12401 302.67718,223.92219 325.81806,211.04986 C 324.14168,212.32336 322.67772,213.85162 321.18572,215.32258 C 316.85053,209.55356 303.38586,225.99088 310.62604,217.59926 C 313.50704,214.02744 316.28643,210.37719 319.05415,206.71749 C 322.63594,201.81796 325.96831,196.74997 329.18301,191.61413 C 331.34258,186.7233 333.46002,181.83763 335.8431,177.04923 C 339.29665,170.09069 342.5663,163.04389 345.80687,155.98443 C 349.60982,147.41073 352.93585,138.62913 355.85385,129.71756 C 359.05857,120.26606 362.24948,110.83902 364.82239,101.19294 C 367.71678,91.834971 370.41831,82.420417 373.17927,73.022661 C 375.65298,64.253278 378.49002,55.597071 381.05624,46.854139 C 383.05236,40.407262 384.50152,33.815096 386.20511,27.289518 C 387.67531,22.770473 388.50871,18.138766 389.0958,13.441197 C 389.49239,10.255907 389.31465,7.0562748 389.20606,3.8800319 C 388.67011,0.84748265 386.99643,-1.5504105 385.23431,-3.9750737 C 382.39604,-7.3770798 378.78482,-9.7983993 375.11603,-12.185404 C 369.3552,-15.915316 363.21745,-19.004389 357.01946,-21.92959 C 348.74971,-25.736574 340.11516,-28.527755 331.47952,-31.341488 C 321.86678,-34.278448 312.28649,-37.293827 302.75951,-40.499129 C 294.21995,-42.905231 285.69763,-45.372184 277.13152,-47.684637 C 271.82345,-49.194247 266.4485,-50.490223 261.14795,-51.984479 C 258.62024,-52.608955 256.51429,-54.00736 254.29916,-55.257033 C 253.2371,-56.335258 252.01203,-57.178611 250.85132,-58.124713 C 248.61356,-58.94983 246.24699,-59.331632 243.90761,-59.745019 C 238.66192,-60.724442 233.36193,-61.328499 228.07252,-62.011116 C 221.10983,-62.919366 214.0906,-63.184951 207.07816,-63.347802 C 200.49906,-63.467841 193.91867,-63.448322 187.33884,-63.435138 C 181.68924,-63.428518 176.03974,-63.403976 170.39014,-63.399338 C 165.13726,-64.063577 159.88562,-64.658251 154.60854,-65.086682 C 149.63991,-65.533805 144.71664,-66.340035 139.78398,-67.060547 C 134.31921,-67.997097 129.03814,-69.683366 123.69477,-71.128358 C 117.13736,-72.842179 110.80635,-75.266298 104.32391,-77.228916 C 95.704072,-79.795631 87.028729,-82.175562 78.437685,-84.838708 C 69.172899,-87.897371 59.658893,-89.988123 50.065089,-91.683351 C 41.460046,-92.794554 32.8773,-94.104411 24.241756,-94.973274 C 17.179489,-95.612129 10.085555,-95.710657 2.999561,-95.763118 C -2.5507395,-95.825013 -8.1000224,-95.767341 -13.641657,-95.564235 C -16.700411,-95.328784 -19.75811,-94.907913 -22.778772,-94.501545 C -25.74731,-97.95042 -14.570065,-98.431554 -10.465379,-100.39586 C -8.1705382,-98.202651 -6.1063314,-95.819339 -4.0872723,-93.375384 C -0.80493807,-90.111776 2.5861558,-86.958426 5.9286474,-83.756175 C 10.297642,-79.487061 14.607177,-75.163261 19.072945,-70.994549 C 24.386148,-66.249955 29.589681,-61.378652 35.169376,-56.944647 C 40.593949,-52.297874 46.218799,-47.932057 52.25309,-44.109814 C 58.054303,-40.490281 64.061614,-37.249276 70.077963,-34.009942 C 74.478761,-31.428262 79.267788,-29.694461 84.032898,-27.939994 C 86.616193,-27.712069 88.3318,-26.077752 90.228848,-24.825678 C 89.997531,-17.860041 79.749225,-16.654486 73.991129,-13.453775 C 70.199621,-12.244705 66.191288,-12.16909 62.252948,-11.938161 C 58.600359,-11.640294 55.017375,-10.996412 51.432692,-10.277159 C 47.861136,-9.4639394 44.54367,-7.7509622 41.153789,-6.3602168 C 37.916514,-5.0461891 34.522237,-4.2005003 31.135023,-3.4036386 C 28.3118,-2.2971573 25.400839,-1.4611012 22.495392,-0.60790086 C 20.088219,0.010157418 17.667185,0.49978856 15.238097,0.98001985 C 12.630159,1.1396827 10.127862,1.892934 7.6110342,2.5161903 C 4.7443318,2.6909932 2.2263106,3.9493042 -0.38342846,5.0143389 C -7.6647212,7.5860445 -27.521949,18.994205 4.3030032,1.8277068 C 1.5676001,4.4006604 -0.39275978,7.5143501 -2.2653784,10.719207 C -4.0542698,15.016889 -5.6482925,19.399227 -7.3463786,23.737127 C -9.203901,29.338012 -11.034884,34.948026 -12.753984,40.593763 C -14.619363,46.885603 -16.502641,53.179268 -17.988548,59.573329 C -19.694322,66.220243 -20.116912,73.065808 -20.700611,79.871491 C -21.163993,86.039617 -21.598974,92.206248 -22.134623,98.368898 C -22.508923,103.85096 -23.469462,109.22606 -24.555864,114.60031 C -25.670804,119.28281 -27.191599,123.85059 -28.744279,128.39867 C -29.588024,132.37704 -31.108724,136.16172 -32.435889,139.99432 C -33.804691,144.53882 -35.564879,148.93769 -37.238958,153.37448 C -38.838012,157.08855 -39.827481,160.98484 -40.776105,164.89902 C -41.240591,168.03944 -42.125823,171.08035 -42.977396,174.1314 C -43.560866,176.59758 -44.431218,178.97701 -45.261304,181.36658 C -45.946514,183.30636 -46.874181,185.12114 -47.787445,186.95544 C -49.351934,189.26602 -51.462619,191.1454 -53.409876,193.12758 C -56.162793,195.28171 -58.957593,197.37274 -61.675624,199.57653 C -64.807812,201.79353 -67.042814,204.94232 -69.384601,207.92279 C -71.788947,211.4277 -73.230353,215.43078 -74.833471,219.33348 C -76.400035,223.41863 -77.351019,227.69168 -78.311351,231.9465 C -79.035415,235.81141 -79.137533,239.74216 -79.260429,243.65914 C -79.31413,246.67833 -79.26492,249.69799 -79.23494,252.71716 C -79.210922,254.83862 -79.208164,256.9602 -79.202148,259.08176 C -78.857283,261.02728 -79.479056,262.83867 -79.771761,264.67348 C -80.734829,266.41446 -82.013865,267.95774 -83.199898,269.54779 C -89.090026,275.2264 -96.951564,278.24043 -104.02679,282.11432 C -107.75413,283.87606 -111.74806,284.85345 -115.72382,285.8405 C -120.68353,287.28995 -125.86651,287.65409 -130.97384,288.27731 C -136.88037,288.9123 -142.82264,288.98746 -148.75558,289.09647 C -153.95436,289.23169 -159.14746,289.2159 -164.31726,288.87876 C -167.67378,288.67703 -170.59424,287.65866 -173.54802,286.34005 C -176.20178,279.18856 -164.56573,278.10274 -158.67948,274.82635 C -154.44575,273.89216 -150.10142,273.53745 -145.79598,273.06787 C -139.19519,272.8278 -132.67436,271.79767 -126.09197,271.28586 C -117.09564,270.82245 -108.09284,270.46161 -99.090324,270.11874 C -87.734779,269.50094 -76.384365,268.79067 -65.035263,268.06287 C -51.380093,267.47325 -37.84646,265.46716 -24.284118,263.89708 C -9.7602782,262.35232 4.7639963,260.81158 19.282543,259.21167 C 34.124988,257.71351 48.852801,255.24544 63.439712,252.14641 C 77.366725,248.94535 91.122629,245.02255 104.77758,240.82123 C 116.79733,237.2472 128.52314,232.88731 139.77331,227.35297 C 162.53461,212.83289 129.88239,236.18794 155.01799,217.48155 C 161.79918,211.90921 167.65365,205.35296 172.67497,198.17823 C 177.39095,191.94518 180.67354,184.93237 183.3052,177.61957 C 185.50484,170.77705 186.99527,163.77873 187.82795,156.64789 C 188.60306,150.62047 188.21766,144.56152 187.89997,138.52125 C 187.71483,133.83303 186.40182,129.39685 184.84828,125.02283 C 183.1002,121.20066 180.21529,118.14578 177.38796,115.1048 C 173.99614,111.76978 170.52465,108.55242 166.87497,105.50128 C 163.18471,102.7892 159.3208,100.34468 155.60113,97.67673 C 152.88539,95.481205 149.76748,93.948542 146.62397,92.490657 C 144.44348,91.178748 142.14208,90.087534 139.90261,88.896155 C 138.16263,88.213773 136.29982,88.32512 134.47596,88.203265 C 131.71382,88.062703 128.99053,88.214935 126.24931,88.527047 C 122.04164,89.002156 117.90981,90.018716 113.78239,90.950946 C 107.13553,92.220728 100.85825,94.909137 94.724788,97.698421 C 86.812176,101.10927 79.150935,105.08088 71.377599,108.79977 C 76.387229,104.85788 48.994305,121.00936 54.534004,117.85554 C 61.940227,113.63908 66.246147,111.05506 58.725787,115.52334 C 50.828461,119.68741 43.826178,125.22113 36.447012,130.17444 C 29.27069,134.42898 22.714678,139.50685 16.438587,144.97261 C 11.311769,149.44024 7.390764,154.92345 3.8957181,160.69914 C 1.1225697,165.44384 -0.40634941,170.72322 -1.965374,175.94699 C -3.2612212,180.89347 -3.3755092,185.92434 -3.1717172,190.98067 C -2.6353221,195.83374 -0.24611262,199.88638 2.1076921,204.03302 C 5.5785621,208.83344 10.041089,212.73921 14.417648,216.68051 C 19.475809,220.957 24.720332,225.01247 30.254445,228.65289 C 35.964958,232.27007 42.17727,234.99029 48.411338,237.55945 C 55.417412,240.09287 62.432711,242.60054 69.53155,244.86327 C 76.560494,246.67856 83.604465,248.43481 90.657346,250.1584 C 97.152506,251.53791 103.69211,252.69931 110.28669,253.47731 C 116.7943,254.1025 123.33085,254.21218 129.85259,254.63235 C 136.24171,255.04006 142.56496,256.20343 148.90026,257.10957 C 154.9381,257.81711 160.98278,258.43721 167.04158,258.93012 C 172.11865,259.26563 177.20752,259.29305 182.29321,259.31768 C 185.19136,259.18871 188.06169,259.68013 190.91789,260.07801 C 195.33889,266.38854 180.93392,267.40811 176.08939,269.82881 C 172.38656,270.32265 168.71909,271.34996 165.04594,272.13204 C 159.28504,272.75296 153.75155,274.01409 148.25617,275.78658 C 132.78394,282.78593 145.98109,276.16765 147.09714,275.55569 C 144.51298,277.35593 141.83893,278.99811 139.24588,280.78778 C 133.80055,284.97109 129.06771,289.97761 124.21067,294.80896 C 117.99688,301.19419 111.56382,307.36448 105.15454,313.55282 C 98.336857,320.18283 91.509738,326.80897 84.797715,333.54591 C 79.643993,339.37448 74.470085,345.16454 68.75616,350.45219 C 62.773635,355.81684 56.385031,360.64353 49.583342,364.91088 C 5.472617,383.1314 82.557121,355.95189 18.158768,381.77387 C 11.900746,384.49656 5.2805905,386.20033 -1.3731817,387.62485 C -7.4026866,389.14892 -13.569221,389.57827 -19.747543,389.83942 C -23.404289,389.66538 -27.077401,389.56021 -30.719125,389.52741 C -38.283345,390.40387 -18.803481,383.82978 -17.856288,383.37848 C -14.046083,385.32104 -9.9562651,386.61746 -5.958513,388.11741 C -0.18032907,389.89138 5.4967645,391.9475 11.199402,393.94058 C 15.907588,395.46372 20.582034,397.09129 25.288854,398.60609 C 28.189848,399.18402 31.009759,400.0468 33.839431,400.86972 C 36.154168,401.85656 35.846388,403.3131 36.425817,405.2396 C 35.949817,406.60338 35.186784,407.8616 34.508849,409.13451 C 33.617396,411.09269 34.743551,412.37832 35.282543,413.99502 C 36.754489,415.14999 38.533348,415.22391 40.250152,415.65751 C 43.600152,414.81513 34.62061,419.68558 31.609716,421.37868 C 32.84549,420.55984 33.362867,419.13194 34.150402,417.93708 C 38.462037,412.57227 45.65016,410.39826 51.829543,407.73844 C 54.791156,406.71711 57.817149,405.85473 60.80744,404.89872 C 63.206841,403.73102 65.779746,403.30855 68.363547,402.83643 C 70.648382,402.16057 72.00418,403.31255 73.858324,404.06588 C 75.022763,405.58817 76.562728,406.45718 78.141919,407.4608 C 81.155828,409.73287 84.688607,411.01748 88.164691,412.38337 C 92.123951,413.9854 95.579107,416.27589 98.816413,418.99651 C 100.76788,420.89532 101.06565,423.11929 101.5223,425.61404 C 101.44608,427.38119 100.95029,429.08776 100.59089,430.80254 C 100.31735,432.41798 99.549151,433.84364 98.953913,435.33045 C 98.735985,436.10587 97.980339,436.48954 97.510905,437.04842 L 83.602104,442.69647 C 84.160881,442.26661 84.721846,441.908 85.243912,441.43344 C 85.884951,440.02772 86.965643,438.85366 87.027113,437.19124 C 87.425778,435.59349 87.97183,434.03823 88.158931,432.37525 C 87.805238,430.30305 87.98822,428.41026 86.184659,426.79132 C 83.090292,424.18839 79.778109,422.01466 75.950458,420.57458 C 72.393757,419.17466 68.83252,417.78243 65.653226,415.61366 C 64.068416,414.52003 62.44255,413.55519 61.162706,412.07705 C 59.630743,411.90575 58.075926,411.09882 56.414134,411.79888 C 53.926021,412.39826 51.455458,413.00933 49.070819,413.97817 C 46.068534,414.92752 43.033923,415.79202 40.093159,416.92164 C 30.23902,421.60316 48.683043,407.49168 47.942669,412.01324 C 47.171136,413.29871 46.138715,414.39361 45.554079,415.82199 C 39.477286,419.4302 34.903258,425.18134 28.002553,424.23954 C 26.001504,423.64869 24.004152,423.25321 22.445945,421.71887 C 21.464059,419.68056 20.400449,418.00549 20.961739,415.55439 C 21.514209,414.18504 21.719791,412.76392 22.856317,411.70794 C 22.664843,411.36934 23.494526,408.86986 21.467413,409.25183 C 18.689502,408.44135 15.911347,407.62276 13.097979,406.92828 C 8.4543769,405.29803 3.8165441,403.64398 -0.85554121,402.08787 C -6.555727,400.04892 -12.286058,398.11534 -18.063358,396.30446 C -22.230099,394.79466 -26.511442,393.50434 -30.431193,391.40516 C -35.983248,385.20938 -26.993615,382.50925 -18.684842,380.70326 C -15.10696,380.91194 -11.526676,381.18318 -7.9408169,381.23139 C -1.8415811,380.88451 4.2401323,380.36316 10.188645,378.83844 C 16.793416,377.36454 23.327978,375.55163 29.537204,372.81702 C 48.302297,365.10801 3.6086618,388.85221 45.263614,364.81577 C 48.31252,363.05644 39.175704,368.35153 36.131748,370.11941 C 43.004133,365.95175 49.461127,361.21926 55.47962,355.87922 C 61.28119,350.67773 66.453816,344.88596 71.574666,339.02318 C 78.324684,332.29555 85.185432,325.67637 91.97163,318.98419 C 98.371476,312.83865 104.77386,306.68322 110.94,300.30443 C 115.7236,295.5128 120.37028,290.5613 125.56533,286.21099 C 128.0969,284.29746 130.68608,282.55971 133.42406,280.96156 C 141.95776,275.84028 150.20657,269.93289 159.78113,266.83604 C 165.3521,265.23175 170.96767,264.11804 176.70976,263.26695 C 180.4727,262.40575 184.21228,261.3143 188.05927,260.92179 C 184.6368,263.14308 176.77469,265.01264 178.58337,268.66998 C 175.86244,268.30986 173.14641,267.80886 170.38076,267.95841 C 165.30843,267.87505 160.23303,267.80678 155.17249,267.41387 C 149.11253,266.86488 143.05983,266.23997 137.02217,265.47905 C 130.71645,264.53913 124.40655,263.45197 118.03546,263.10042 C 111.51146,262.66571 104.96387,262.59468 98.462814,261.84988 C 91.837019,261.01076 85.250703,259.87345 78.739094,258.38052 C 71.699222,256.59273 64.629638,254.91701 57.636408,252.95605 C 50.491936,250.67082 43.414158,248.18188 36.370688,245.60279 C 30.079991,242.96736 23.795685,240.21973 18.080625,236.45543 C 12.496742,232.75644 7.1592027,228.69206 2.0663022,224.34088 C -2.427688,220.31598 -6.9886735,216.29518 -10.536508,211.37383 C -13.043303,207.05956 -15.599536,202.84533 -16.191753,197.76842 C -16.489593,192.55698 -16.380112,187.37854 -15.147903,182.25234 C -13.655198,176.89264 -12.128479,171.49424 -9.4071146,166.59509 C -5.895908,160.69472 -2.0407285,155.01723 3.1049647,150.38931 C 9.4117399,144.8817 15.866963,139.58474 23.139943,135.36801 C 30.637786,130.58663 37.448314,124.7276 45.418061,120.65199 C 57.57783,113.40187 69.775126,106.143 82.505264,99.926708 C 90.312212,96.152669 98.034058,92.18469 106.00119,88.756846 C 112.26931,85.992445 118.64924,83.367157 125.4126,82.089372 C 129.63231,81.14901 133.84669,80.076234 138.16151,79.673685 C 140.97582,79.466088 143.78934,79.323585 146.61416,79.457312 C 148.57581,79.713658 150.58351,79.668266 152.38352,80.652976 C 154.57303,81.882906 156.77421,83.095829 158.99283,84.274545 C 162.16476,85.847095 165.28324,87.524566 168.0469,89.770495 C 171.79143,92.444089 175.63147,94.976749 179.31418,97.73854 C 183.0141,100.82443 186.51482,104.09735 189.96434,107.46143 C 192.90844,110.64154 195.91462,113.8245 197.70832,117.83242 C 199.32023,122.35957 200.67663,126.97099 200.88089,131.82628 C 201.16358,137.95769 201.56601,144.10322 200.81186,150.22198 C 199.96155,157.44835 198.52932,164.54233 196.38553,171.50568 C 193.79972,178.94156 190.57936,186.12243 185.816,192.45064 C 180.84911,199.81042 174.95189,206.45769 168.19296,212.23857 C 155.96634,221.56595 142.38558,228.95164 128.80308,236.10643 C 117.53716,241.49257 105.80586,245.71834 93.837018,249.27568 C 80.185971,253.39901 66.452881,257.30192 52.53312,260.41986 C 37.902457,263.44051 23.152367,265.91521 8.2797396,267.39228 C -6.2479303,269.00374 -20.787156,270.5068 -35.315262,272.10945 C -48.944849,273.71755 -62.551475,275.68233 -76.273103,276.3398 C -87.685567,277.09391 -99.098206,277.85059 -110.5175,278.49343 C -119.56672,278.89698 -128.62088,279.25437 -137.65957,279.84229 C -144.29444,280.46338 -150.89023,281.43613 -157.54869,281.792 C -161.85318,282.32498 -166.26703,282.61557 -170.39077,284.03557 C -167.22806,282.12164 -158.04494,275.94565 -160.9098,278.28197 C -158.14875,279.31814 -155.32317,280.13512 -152.3072,280.3574 C -147.20825,280.58357 -142.10033,280.63348 -136.99033,280.51939 C -131.07285,280.38174 -125.14532,280.27239 -119.2616,279.55642 C -114.15716,278.90845 -109.00072,278.42391 -104.06652,276.87594 C -100.09344,275.83907 -96.142524,274.74786 -92.43509,272.93487 C -91.86894,272.67593 -91.302791,272.41699 -90.736641,272.15804 C -94.428767,274.32098 -98.120893,276.48392 -101.81302,278.64686 C -100.0976,277.63397 -98.437771,276.67918 -96.972084,275.30574 C -95.742889,273.86155 -94.518216,272.38854 -93.444001,270.85626 C -92.928521,269.18735 -92.028339,267.83415 -92.52575,265.8719 C -92.525204,263.7451 -92.525969,261.61829 -92.519445,259.49149 C -92.504674,256.44331 -92.491723,253.39511 -92.454873,250.34708 C -92.354928,246.3443 -92.219014,242.33744 -91.550612,238.37923 C -90.63989,234.03936 -89.659777,229.70827 -88.210099,225.50639 C -86.556999,221.55274 -85.19143,217.45817 -82.907419,213.8039 C -80.657062,210.70721 -78.425184,207.44583 -75.400341,205.06218 C -72.694337,202.91079 -70.092926,200.63774 -67.159983,198.78715 C -65.253526,196.86735 -63.283708,195.01558 -61.441035,193.02994 C -60.429727,191.27777 -59.469343,189.54964 -58.842097,187.6148 C -57.959892,185.29424 -56.990908,182.98306 -56.371238,180.56137 C -55.59604,177.47609 -54.531191,174.48104 -54.102477,171.3186 C -53.138195,167.33335 -52.249181,163.33728 -50.550305,159.57583 C -48.927741,155.13497 -47.055958,150.80094 -45.752354,146.25135 C -44.483541,142.40915 -42.941632,138.64245 -42.043776,134.69212 C -40.484554,130.15355 -39.006186,125.58212 -37.715655,120.95281 C -36.628858,115.62623 -35.593613,110.31615 -35.180442,104.88172 C -34.627191,98.702921 -34.11713,92.523069 -33.663411,86.335774 C -33.062957,79.483936 -32.695062,72.581862 -31.064887,65.870648 C -29.625021,59.444331 -27.71572,53.139073 -25.897535,46.812577 C -24.204916,41.151109 -22.355402,35.544784 -20.616579,29.898345 C -18.956284,25.5452 -17.313554,21.186152 -15.705535,16.81746 C -13.930516,13.461131 -12.066914,10.236613 -9.4322413,7.4414898 C -2.8638164,3.3759736 3.7095762,-1.7244468 11.309642,-4.1763519 C 13.978246,-5.1724079 16.596914,-6.1833527 19.447046,-6.5666773 C 21.998216,-7.111453 24.541499,-7.7112851 27.147357,-7.9643354 C 29.525154,-8.5342128 31.918124,-9.0526323 34.279814,-9.6911001 C 37.170698,-10.572532 40.040169,-11.51919 42.937941,-12.372908 C 46.263768,-13.271042 49.606631,-14.144946 52.788006,-15.493058 C 56.19448,-16.920417 59.541097,-18.606325 63.21443,-19.224282 C 66.829176,-19.880285 70.454625,-20.467054 74.130729,-20.66479 C 78.035214,-20.951764 82.008706,-21.112487 85.66255,-22.676504 C 82.791312,-20.950625 74.137753,-15.876859 77.167326,-17.306667 C 75.515782,-18.106482 73.748908,-19.337246 71.790018,-19.687815 C 67.052656,-21.562003 62.314185,-23.453196 57.917823,-26.063184 C 51.892531,-29.321291 45.928337,-32.680428 40.107758,-36.295811 C 34.044026,-40.16228 28.415185,-44.60881 22.929213,-49.254723 C 17.343399,-53.736211 12.118371,-58.64365 6.7542424,-63.384246 C 2.2605586,-67.549568 -2.1360086,-71.811507 -6.529497,-76.082294 C -9.9433514,-79.294138 -13.432508,-82.430433 -16.748518,-85.742782 C -18.800642,-88.155853 -20.892672,-90.515633 -23.268259,-92.622013 C -27.006895,-99.599376 -22.942804,-98.587814 -10.849643,-103.50627 C -7.8360729,-103.77843 -4.8233742,-104.08095 -1.8021573,-104.26289 C 3.7153933,-104.34946 9.2343546,-104.36227 14.753606,-104.28402 C 21.831937,-104.18717 28.915958,-104.00736 35.96463,-103.30278 C 44.575238,-102.34425 53.14578,-101.02503 61.726199,-99.842854 C 71.338102,-98.086639 80.857084,-95.865533 90.154705,-92.832024 C 98.805929,-90.229413 107.53004,-87.876541 116.20101,-85.340958 C 122.71997,-83.410206 129.10667,-81.060753 135.69856,-79.375663 C 141.02938,-77.937511 146.32634,-76.340632 151.79566,-75.500615 C 156.69763,-74.79328 161.58859,-73.990305 166.53136,-73.61255 C 171.76895,-73.126677 176.98104,-72.418222 182.22285,-71.997303 C 187.85217,-71.999875 193.48144,-71.985886 199.11075,-71.988121 C 205.67361,-71.976277 212.23732,-71.968174 218.79873,-71.816091 C 225.85524,-71.607116 232.91514,-71.305092 239.92308,-70.399418 C 245.30156,-69.758139 250.67807,-69.116099 256.02912,-68.268749 C 258.59455,-67.781235 261.25491,-67.461782 263.5505,-66.131636 C 264.66843,-65.199744 265.82756,-64.320586 266.91188,-63.343547 C 269.00551,-62.190408 271.01504,-60.894083 273.37127,-60.268243 C 278.57566,-58.762327 283.82212,-57.382242 289.01959,-55.840962 C 297.52334,-53.431253 305.99567,-50.910044 314.48278,-48.445525 C 324.00293,-45.206063 333.62214,-42.312214 343.22323,-39.326053 C 351.9529,-36.537286 360.63912,-33.62901 369.00881,-29.862139 C 375.30773,-26.933169 381.51944,-23.794868 387.42202,-20.120284 C 391.20879,-17.623148 395.00327,-15.128683 397.92234,-11.582427 C 399.85351,-8.9519662 401.72377,-6.3755741 402.33462,-3.0775566 C 402.63773,0.22939788 402.71242,3.5485497 402.30438,6.8806414 C 401.72482,11.681047 400.9592,16.42093 399.36771,21.015247 C 397.54043,27.571009 396.0942,34.224546 394.02446,40.713226 C 391.37346,49.463123 388.50032,58.141621 386.01536,66.939668 C 383.23478,76.324167 380.57483,85.74408 377.63676,95.081307 C 375.03008,104.74091 371.95478,114.22515 368.68028,123.67907 C 365.83256,132.62208 362.55873,141.43009 358.8174,150.03985 C 355.64803,157.08472 352.43072,164.10446 349.06,171.05661 C 346.73871,175.8713 344.57571,180.72645 342.51012,185.65749 C 339.35063,190.86487 335.99616,195.94774 332.46405,200.9229 C 329.79349,204.55056 327.14648,208.20346 324.26962,211.67137 C 320.57787,216.61562 311.15222,228.17077 307.19751,220.91634 C 308.81896,219.46737 310.57241,218.12509 312.06071,216.48128 C 321.04525,211.18717 328.15079,206.32431 338.14715,204.3155 C 345.26516,202.8814 352.43283,202.57823 359.68914,202.85678 C 368.62412,202.88281 377.55909,202.90469 386.49413,202.87945 C 394.62068,202.84582 402.7503,202.84162 410.87232,202.53835 C 415.58381,202.29912 420.40638,202.18032 424.96585,200.88596 C 409.33124,210.49479 416.69107,211.08086 411.48477,205.4001 C 408.38519,202.77014 405.25552,200.17673 402.22075,197.47065 C 398.1559,193.67234 394.00973,189.96443 390.53801,185.58784 C 386.74784,180.79452 383.33308,175.72773 380.33275,170.40044 C 377.3538,164.67928 374.5496,158.86936 371.83778,153.01038 C 369.10311,146.74997 366.49065,140.43625 363.73655,134.18372 C 361.46732,128.58434 359.53582,122.89536 357.65666,117.1527 C 355.91241,112.58819 354.33776,107.99948 353.48161,103.16742 C 353.09073,100.11497 352.76544,97.087644 353.12196,94.002888 C 353.42164,91.760435 353.59394,89.494964 354.50361,87.381597 C 355.26519,85.461449 355.90519,83.460123 357.08092,81.737702 C 358.67793,79.778218 360.33634,77.882293 361.70696,75.745311 C 363.45604,73.149053 365.20459,70.535226 366.89212,67.886135 C 368.94082,64.764058 370.9379,61.600121 372.91374,58.424039 C 374.63997,55.186504 376.20437,51.896602 377.39233,48.406783 C 378.08795,45.070128 378.71146,41.712297 378.47878,38.264326 C 378.2565,33.867792 377.94462,29.653053 375.51018,25.807579 C 369.1011,15.740358 359.92665,8.0132788 350.76028,0.51848652 C 337.74859,-9.4648438 324.29457,-18.754572 309.6843,-26.27439 C 293.55979,-35.073621 277.3513,-43.740048 261.62297,-53.238891 C 243.76645,-63.911532 225.82516,-74.529346 208.56842,-86.129755 C 200.92124,-91.275412 193.06908,-96.076273 185.39563,-101.17056 C 180.24698,-104.8499 175.22895,-108.70091 170.45003,-112.85316 C 163.54789,-119.11252 163.11988,-115.50729 178.72167,-124.93672 C 180.40518,-124.76908 182.17341,-124.37095 183.9168,-124.51274 C 189.04049,-124.24921 194.16042,-123.91344 199.26632,-123.40109 C 207.64695,-122.56042 216.03937,-121.84804 224.41295,-120.93491 C 234.70232,-119.64298 244.88814,-117.66668 255.18929,-116.46333 C 266.00041,-115.16791 276.8016,-113.79133 287.61292,-112.49632 C 297.76847,-111.21545 307.98376,-110.29627 318.01061,-108.15198 C 327.4469,-106.50114 336.89248,-104.70195 346.46788,-104.101 C 355.31106,-103.22994 364.14865,-102.17147 372.81431,-100.14307 C 382.09197,-97.809714 391.53156,-95.456724 400.07574,-91.050883 C 403.24962,-88.486824 402.72008,-87.461833 401.1537,-84.088667 C 398.89272,-81.109311 396.64459,-78.099652 393.89818,-75.533146 C 389.82012,-71.623004 385.62213,-67.856908 381.13522,-64.413986 C 376.09621,-60.471017 371.03086,-56.559327 365.87985,-52.763201 C 360.92456,-48.809648 355.72971,-45.184297 350.57558,-41.501778 C 344.39795,-36.646102 338.35857,-31.627222 332.25182,-26.683468 C 326.60918,-21.811745 321.26224,-16.620357 315.83266,-11.520513 C 312.29718,-7.6822258 308.77858,-3.8512992 305.49813,0.20544467 C 302.26762,3.7402369 299.07151,7.3112499 296.04635,11.024898 C 293.45044,14.321159 290.98548,17.694129 288.88056,21.333597 C 287.70191,23.290372 286.33368,25.249114 286.05387,27.552507 C 286.44497,29.56237 286.21492,31.083736 288.25318,32.486089 C 291.50921,34.640119 294.79206,36.732593 298.30113,38.490513 C 304.86796,42.458346 311.45395,46.38855 318.08398,50.248796 C 326.82156,55.621772 335.57114,60.978169 344.18009,66.556366 C 353.70715,72.690361 363.20314,78.854382 372.35518,85.54289 C 381.5689,92.333243 390.74727,99.199319 399.44635,106.64488 C 407.30279,113.4911 415.13464,120.37708 422.63135,127.61884 C 428.9599,133.50586 435.63738,139.02485 440.89439,145.94804 C 444.89422,150.86295 448.5803,156.03021 452.23805,161.20129 C 454.1885,163.92936 456.19438,166.63137 457.70241,169.64042 C 456.63174,170.50326 451.31933,182.36168 443.03417,180.11431 C 439.18755,180.25982 435.33525,180.38075 431.52637,181.00787 C 425.45274,182.07034 419.36018,183.12454 413.72456,185.76918 C 395.74996,193.66253 425.88722,178.62652 411.59619,186.35033 C 406.31263,189.81963 401.2341,193.55813 396.62722,197.90592 C 391.58385,202.03295 386.72071,206.45223 381.04661,209.71641 C 372.48774,214.67453 364.23403,220.4171 354.80903,223.61471 C 345.17782,227.18419 384.54051,206.45321 345.25269,228.6759 C 365.94122,216.56492 354.30103,222.02536 350.91587,227.32671 C 350.60732,229.38153 349.70299,231.14025 350.82062,233.38041 C 352.01001,236.50666 353.23207,239.61801 354.57904,242.68681 C 355.66765,245.93933 356.63606,249.21935 357.49326,252.54102 C 358.00799,256.47739 358.30581,260.39808 358.10284,264.38029 C 358.10236,268.76624 358.10341,273.15251 358.03184,277.53804 C 357.9424,282.55662 357.86424,287.57642 357.53739,292.58665 C 357.28647,296.68582 356.95887,300.78987 357.6128,304.87465 C 358.11337,307.5234 358.74648,310.05995 359.82373,312.53652 C 360.96566,314.48157 361.77596,316.52634 363.79531,317.83608 C 367.1594,320.37124 370.77435,322.30151 374.64222,324.01011 C 381.25265,327.31799 387.99881,330.30801 394.81278,333.17699 C 407.35697,338.73631 420.0044,344.0589 432.84691,348.89704 C 443.23257,353.18703 453.55064,357.63411 463.98308,361.81155 C 473.9669,365.94133 483.739,370.55289 493.55356,375.06649 C 501.57789,379.13673 509.58057,383.287 517.18803,388.105 C 522.89911,391.75553 528.58459,395.44389 534.35421,398.99962 C 538.25067,401.66932 542.19718,404.28116 545.79119,407.35941 C 547.42448,408.97802 549.33709,410.16158 549.53235,412.63062 C 549.1132,413.94816 548.73883,415.29668 548.32238,416.63392 C 546.17965,418.36934 541.52265,430.61976 534.38191,426.58206 C 532.792,425.24271 530.98058,424.1224 529.83203,422.27896 C 528.10935,419.91969 526.39486,417.59383 525.23577,414.87652 C 523.20606,409.14372 521.56161,403.29833 520.39273,397.31738 C 519.97719,392.21833 519.63702,387.12507 519.62752,382.00361 C 519.6295,379.97869 519.62959,377.95377 519.63992,375.92887 C 519.65217,373.91494 519.67072,371.90096 519.66609,369.88698 C 519.56785,368.20181 519.7339,366.45989 519.04831,364.86934 C 517.67258,363.80525 516.48582,362.463 514.57999,362.09691 C 512.23299,361.11101 509.88102,360.13839 507.54702,359.12222 C 505.3377,358.15818 503.26783,357.20525 500.7991,357.08162 C 499.11395,356.24597 497.70863,356.60319 497.8371,354.24858 C 503.61023,349.30546 509.95045,345.55724 516.93905,342.14268 C 521.43881,339.71715 526.03039,337.58361 530.90584,335.99623 C 537.43253,333.31681 544.0238,330.76355 550.96482,329.35349 C 558.67645,327.97279 566.49596,327.61837 574.30932,327.20393 C 580.33352,326.79874 586.36392,326.52119 592.38523,326.07347 C 595.91263,325.98945 599.44022,325.94563 602.9697,325.92872 C 605.021,325.8116 607.09995,325.83306 609.06749,325.14479 C 605.70694,327.17623 602.38592,329.27456 598.98583,331.23912 C 593.85237,334.20521 609.1371,325.0972 614.38546,322.33952 C 610.42675,324.63409 598.55987,331.53366 602.50934,329.22322 C 644.6782,304.55444 591.62902,336.14698 608.83786,325.21296 C 664.50889,287.06566 587.4221,341.00083 634.28149,309.7635 C 639.34312,306.94176 644.51649,304.33096 649.97553,302.35028 C 657.69261,299.82272 665.64103,298.0417 673.53791,296.17455 C 682.50951,294.19845 691.66862,293.25834 700.59562,291.0567 C 708.9545,288.41564 704.14189,290.401 692.9403,297.0848 C 690.81109,295.90878 688.75235,294.56936 686.26197,294.13938 C 682.14451,292.96084 677.95589,292.22853 673.79024,291.23862 C 669.56989,289.96049 665.44422,288.49994 661.48556,286.52974 C 657.87408,284.87284 654.22901,283.23263 650.84175,281.146 C 648.59272,279.7496 646.30034,278.42378 644.11234,276.93214 C 639.92448,273.72539 635.95239,270.2977 632.39907,266.37916 C 625.12873,258.63547 618.06011,250.73229 611.47754,242.38541 C 601.13293,229.9067 590.98947,217.21543 579.49655,205.75525 C 574.07711,200.18513 568.53708,194.73613 562.64808,189.65759 C 558.63288,186.26433 554.4965,183.00696 550.64949,179.42047 C 548.68472,177.52082 546.72767,175.60677 545.0208,173.46698 C 544.64622,171.11149 543.72553,169.69663 545.56302,167.36153 C 548.47123,163.5172 551.39962,159.69008 555.28759,156.74632 C 564.46989,151.27006 568.69948,147.16602 578.09143,146.24851 C 581.969,146.17619 585.84756,146.18317 589.72748,146.17957 C 591.90627,146.11641 594.15772,146.30135 596.22952,145.50959 C 573.74049,158.50938 584.17197,153.3571 588.68604,148.98372 C 590.84836,146.87673 593.21441,145.05862 595.43696,143.01149 C 602.85287,138.72566 607.80245,134.46813 615.60945,133.20449 C 619.88529,133.67503 624.14076,134.36107 628.46668,134.04837 C 632.73146,134.0322 636.99633,134.02414 641.26104,133.99428 C 649.50739,135.43583 646.83561,136.86704 632.50775,143.68236 C 630.0617,144.54696 627.62986,145.45106 625.13224,146.16239 C 621.16465,147.52321 617.29106,149.11482 613.33899,150.51887 C 609.34078,151.82066 605.32548,153.09265 601.61114,155.10845 C 597.29112,157.36092 592.94051,159.55543 588.64327,161.84668 C 584.7208,163.85599 580.71014,165.64871 576.66854,167.41127 C 572.4067,169.00763 568.12257,170.56364 563.70423,171.68891 C 559.57117,172.74447 555.43456,173.72754 551.22171,174.40736 C 548.04946,175.35691 544.90145,176.44381 541.64698,177.08178 C 539.76135,177.26073 537.83511,177.28746 536.05996,178.0282 C 532.96172,179.48596 541.68677,174.04399 544.82083,172.6649 C 538.39028,176.41308 533.44303,180.22094 526.72016,182.27342 C 523.75685,182.89365 521.04357,183.53021 518.02853,182.58012 C 512.70466,181.30929 507.47832,179.69024 502.51021,177.34165 C 494.39484,173.44861 486.53182,169.06452 479.50565,163.38243 C 469.12075,155.17949 459.6977,145.89153 451.04113,135.8784 C 439.64064,122.71497 428.96532,108.97933 418.35776,95.173609 C 410.73918,85.577679 403.89567,75.44687 397.45977,65.019747 C 393.16556,58.039877 388.86136,51.056716 384.13056,44.360921 C 381.41883,40.634272 378.64704,36.911721 375.1141,33.909922 C 378.51183,31.429318 387.30832,22.990267 385.54958,26.811886 C 386.10671,29.42225 386.7143,31.944225 388.1527,34.2691 C 390.91446,39.542214 394.08856,44.544325 398.11131,48.982128 C 403.16441,55.017995 408.32831,60.945914 413.55996,66.827017 C 419.64108,73.88871 425.66459,81.008455 430.09158,89.277548 C 435.32885,98.954797 440.61098,109.01224 442.87717,119.81427 C 442.60652,122.31735 442.43522,124.834 441.62566,127.24309 C 441.05997,129.22354 440.56066,131.22065 439.5887,133.06105 C 438.2903,134.69592 437.29524,136.52856 435.49407,137.75111 C 428.87618,141.55841 421.91391,146.40638 414.51292,148.99195 C 411.19865,150.00075 407.86668,150.97292 404.60689,152.14748 C 390.64807,157.98345 401.94633,154.86989 406.02897,150.41601 C 402.26813,152.93382 398.5555,155.49504 395.13685,158.47668 C 391.42769,162.12554 387.91433,165.97313 385.15642,170.43604 C 381.87856,176.47229 378.92672,182.70755 377.11939,189.38484 C 374.98649,198.60769 373.19722,207.95915 372.35804,217.39364 C 371.77479,226.97885 371.7754,236.58029 372.02982,246.17896 C 372.29757,253.43968 372.77492,260.70523 375.45389,267.55382 C 379.16197,276.27388 384.54139,283.974 391.78757,290.16842 C 401.01287,297.79375 411.00849,304.31613 421.5079,310.07221 C 433.09323,316.01649 444.95572,321.43568 457.34335,325.51132 C 468.36591,329.2162 479.51248,332.54377 490.76077,335.4969 C 499.0857,337.66893 507.50363,339.60121 516.0213,340.84374 C 521.01909,341.22798 526.01733,341.21209 531.02648,341.06453 C 541.44029,340.20765 523.08421,341.92683 522.62737,349.03869 C 519.84896,348.38578 517.08909,347.69474 514.17814,347.76622 C 504.13351,347.28646 494.06979,347.58273 484.01814,347.47056 C 468.42208,347.43476 452.79265,347.45708 437.24638,348.84574 C 423.47954,350.44313 409.92011,353.18524 396.52223,356.74252 C 382.2686,360.3266 368.14433,364.43795 354.22803,369.17089 C 340.90316,373.99501 327.86954,379.56124 314.66563,384.70239 C 301.34191,390.18525 288.1446,396.04285 275.64765,403.25059 C 275.09266,403.56085 258.92366,412.79307 240.77906,423.35076 C 231.68869,428.43224 222.52417,433.31741 212.88831,437.30656 C 205.38087,440.41179 197.87175,443.50995 190.38101,446.65422 C 184.78628,448.79349 179.29704,451.15057 173.87973,453.70538 C 171.09903,454.82476 169.05863,455.92746 166.14238,454.79712 C 163.95907,453.14367 161.89698,451.88911 161.15567,448.99301 C 160.92616,447.12949 160.22163,445.48998 161.16384,443.65241 C 161.44606,442.12311 161.38306,440.47124 162.36772,439.16677 C 161.94098,438.97528 161.55488,438.57407 161.0875,438.5923 C 158.3411,438.34837 155.5942,438.11875 152.86742,437.69054 C 145.33283,434.39783 148.35145,436.9277 162.58861,428.07678 C 166.0924,427.97013 169.60057,427.89965 173.10946,428.12456 C 178.9351,428.48125 184.76446,428.85791 190.42872,430.40074 C 198.69847,432.45518 206.92488,434.74074 214.74268,438.18751 C 224.32047,442.12476 233.66222,446.51229 242.6936,451.5953 C 250.42563,455.70978 258.2101,459.80759 265.3434,464.92192 C 270.07343,468.46488 274.67082,472.286 278.29503,476.99128 C 279.3989,478.68555 281.26278,481.43053 281.95882,482.71312 C 265.71294,492.29172 268.40489,493.82858 270.6349,485.3473 C 271.99224,480.59265 273.23988,475.78695 275.16451,471.21321 C 278.68015,462.60441 282.03725,453.92748 285.71439,445.38859 C 288.08786,439.97516 290.6662,434.66733 292.53361,429.04591 C 294.02642,425.11737 295.30213,421.16249 295.81875,416.96789 C 296.12489,413.77204 296.61222,410.58262 296.38662,407.36527 C 296.21326,404.25882 296.14651,401.13559 295.3632,398.10027 C 294.47571,394.44021 293.66868,390.76434 292.63881,387.14077 C 291.63514,383.49365 290.3735,379.95931 288.83565,376.49219 C 287.91243,373.18046 286.86409,369.93859 285.44608,366.79851 C 284.70303,364.07606 283.89683,361.52245 284.29534,358.64047 C 284.30428,356.35498 284.27109,354.06601 284.45594,351.78588 C 284.62699,350.36568 284.79385,348.93539 284.93493,347.5167 C 283.59096,346.88877 282.50609,345.3569 280.44584,345.84908 C 276.23275,345.71268 272.01461,345.69668 267.79717,345.6991 C 260.92079,345.71934 254.04211,345.74301 247.1713,346.0541 C 235.86679,346.71199 231.53378,349.94232 248.90636,338.93179 C 251.71647,340.34178 254.53511,341.881 257.54919,342.9036 C 264.61236,345.36959 271.65397,347.89548 278.60928,350.65522 C 287.58126,353.87364 296.23691,357.77017 304.97918,361.55084 C 313.6242,365.50508 322.22836,369.58641 330.33013,374.58636 C 337.04991,379.09665 343.94229,383.36559 350.43746,388.20073 C 354.42517,391.00284 358.41292,393.8053 362.4749,396.49895 C 369.3149,401.56011 364.36453,401.40865 352.59335,407.43305 C 350.43282,407.45203 348.26748,407.40732 346.11245,407.63205 C 341.18596,408.13668 336.28623,408.81667 331.4638,409.98228 C 323.35682,411.5538 315.1813,412.81439 307.195,414.96893 C 297.70524,417.30777 288.16073,419.34193 278.60666,421.39611 C 268.53559,423.58762 258.41482,425.37094 248.14169,426.31584 C 239.02733,427.25642 229.90697,428.38364 220.73438,428.46885 C 213.13778,428.46944 205.54112,428.45879 197.94461,428.50279 C 194.4447,428.52618 190.87701,428.38695 187.41312,428.8784 C 201.08218,420.88357 195.47827,419.16008 202.28735,422.04826 C 207.10884,424.08484 211.86437,426.26883 216.67711,428.32652 C 221.0528,430.15211 225.39774,432.16822 230.01317,433.30451 C 233.99622,434.21619 238.0037,434.98938 242.03254,435.68724 C 246.37504,436.53742 250.69477,437.59044 255.09556,438.07906 C 259.75936,438.52132 264.42755,438.97147 269.11244,439.12294 C 273.62154,439.12479 278.13061,439.13084 282.63967,439.15025 C 286.78944,439.14519 290.94317,439.18463 295.0891,438.97967 C 298.19354,438.69459 301.28687,438.47618 304.05742,436.88393 C 300.25748,439.09429 296.45953,441.30805 292.65762,443.515 C 286.51307,447.08183 316.56216,428.23861 311.0005,432.65965 C 283.29238,448.85538 329.34855,422.05963 304.77205,436.42298 C 306.43156,435.0974 308.13871,433.86924 309.87633,432.64191 C 311.66242,431.13108 313.449,429.63583 314.94454,427.83047 C 315.4998,426.29977 316.27374,424.87821 316.41695,423.20175 C 316.65139,421.45164 316.80064,419.63748 317.32884,417.93262 C 321.80549,414.82177 326.36207,406.80079 333.50061,407.81285 C 335.29366,408.14834 337.13248,408.09613 338.6507,409.30528 C 339.79267,410.30012 340.9568,411.26586 342.07171,412.28523 C 343.79731,413.69851 345.5158,415.12107 347.26103,416.51488 C 350.93981,419.44596 354.75735,422.25311 357.95831,425.72276 C 362.04686,430.39627 366.11631,435.10584 369.95531,439.9946 C 374.65861,446.12459 378.94049,452.57942 382.92291,459.19846 C 385.93466,464.43448 388.65396,469.64673 390.40944,475.45729 C 391.96399,479.68113 393.38044,483.92311 394.4067,488.31277 C 394.70177,489.28259 395.43103,492.22429 395.92853,492.46734 C 375.69696,503.87144 381.43975,501.91902 385.82909,497.43568 C 386.92506,496.37167 388.03795,495.32826 389.05464,494.17906 C 390.32993,493.24865 391.64261,492.28275 392.58974,491.08096 C 398.59985,487.43936 403.24397,481.90064 410.27655,482.48322 C 412.30906,482.48456 414.34157,482.48381 416.37407,482.49008 C 418.74484,482.49903 421.11559,482.50993 423.48636,482.51593 C 426.8418,482.49863 430.19913,482.51223 433.55151,482.3428 C 438.13514,482.0882 442.70981,481.74389 447.28212,481.32973 C 452.58503,480.95478 457.87503,480.48035 463.11052,479.51132 C 468.46523,478.61669 473.80758,477.65763 479.1249,476.55487 C 481.54632,476.1113 483.94913,475.66025 486.28863,474.87359 C 488.48768,474.39121 490.69441,473.71032 492.96939,473.89271 C 494.29589,474.56777 495.77572,474.90535 496.7423,476.19299 C 497.4922,477.00721 497.85078,478.20448 498.99215,478.6358 C 501.04743,479.71603 503.0252,480.96984 505.28589,481.63643 C 509.11381,483.03258 512.94348,484.46374 516.90307,485.44901 C 525.4148,487.40947 534.07223,488.7168 542.67243,490.22286 C 548.35119,491.15819 554.01998,491.91809 559.75622,492.36402 C 563.0834,492.87671 566.41647,493.33605 569.75486,493.77167 C 572.56717,494.04874 575.37437,494.38707 578.18867,494.62791 C 580.43145,494.66616 582.6748,494.69046 584.91591,494.79407 C 581.71118,497.14134 579.27723,500.88471 575.49138,502.0878 C 575.85356,500.68139 576.70814,499.36284 576.36009,497.80228 C 575.7642,495.79324 575.47799,493.64151 574.29909,491.79839 C 573.1484,490.00996 572.02891,488.18827 570.8547,486.4067 C 568.77436,483.04299 566.79586,479.6207 564.7657,476.22694 C 562.87662,472.37613 561.27222,468.46665 560.25882,464.27674 C 559.14973,459.55187 557.90684,454.80245 558.15777,449.89943 C 558.32985,446.5364 558.59882,443.18646 558.93084,439.83595 C 565.58749,436.68744 589.20211,425.35032 559.0662,441.60747 C 556.33856,442.85173 553.66581,444.17211 550.98955,445.52565 C 547.38121,447.10776 543.74784,448.6485 539.95316,449.74136 C 534.69105,451.09189 529.38902,452.30255 524.16338,453.80344 C 519.76191,454.64096 515.41357,455.16249 510.90712,454.83732 C 506.6307,454.85086 502.35427,454.87217 498.07782,454.86761 C 493.70539,454.88119 489.33024,454.91774 484.96019,454.74985 C 479.29074,454.40433 473.63821,453.87456 468.07795,452.64021 C 461.0043,451.10379 453.8746,449.6158 446.99119,447.37098 C 442.62345,445.50601 438.39994,443.32692 433.95924,441.64617 C 430.86113,440.41272 427.839,438.77819 424.4228,439.00341 C 420.60957,439.43868 416.81321,439.98362 413.05083,440.75654 C 409.8864,441.42696 406.73721,442.12996 403.67201,443.18698 C 400.48876,443.87703 397.30273,444.55372 394.07843,445.03868 C 391.72624,445.29887 389.34892,445.77331 386.98962,445.33754 C 385.22788,445.06226 383.50003,444.64885 381.69777,444.72795 C 379.82938,444.05771 378.57178,444.48487 378.10407,442.11263 C 379.26414,440.80052 380.41736,439.38889 381.767,438.18082 C 383.83444,435.9929 385.84131,433.71951 388.39837,432.02831 C 392.09754,429.26549 395.53519,426.19921 399.16482,423.34245 C 404.21246,419.66497 409.16882,415.86861 414.15003,412.10331 C 424.21169,405.85824 434.51025,400.00448 445.09361,394.69377 C 451.95428,391.51518 458.66582,388.02838 465.59659,385.00201 C 474.01493,381.22823 482.42328,377.33197 491.23393,374.5485 C 498.36236,372.2883 505.61759,370.53062 512.94376,369.0301 C 520.29888,367.3799 527.66266,365.77369 535.03163,364.18558 C 542.44884,362.53947 549.93877,361.40469 557.54102,361.07054 C 562.9623,360.7733 568.3757,360.33832 573.80164,360.14673 C 577.54331,359.93808 581.27024,359.65816 584.99487,359.24682 C 588.62719,358.71527 579.85174,364.64516 576.6383,366.42002 C 574.88832,365.11341 573.33093,363.5573 571.01408,363.17132 C 567.58853,362.24537 564.17563,361.22889 560.63917,360.80598 C 556.17099,360.10682 551.69747,359.44336 547.2226,358.787 C 541.41167,357.73487 535.62532,356.56207 529.82113,355.47241 C 522.59426,354.4852 515.35594,353.60261 508.11204,352.75005 C 498.25926,351.50314 488.40144,350.1623 478.46817,349.76844 C 468.25731,349.11248 458.04926,348.46764 447.81434,348.34696 C 440.36944,348.05483 432.94568,347.45343 425.50557,347.07271 C 417.65621,346.67951 409.80824,346.37744 401.94948,346.24332 C 395.45513,346.0094 388.96848,345.50885 382.46519,345.69682 C 376.79812,345.70051 371.13105,345.70383 365.464,345.71894 C 361.12117,345.7286 356.77804,345.71579 352.43558,345.7818 C 349.55207,345.86944 346.65697,345.91614 343.80823,346.42671 C 341.28232,347.05488 338.75645,347.83391 336.14715,347.98244 C 339.14347,345.89587 341.73147,343.26327 344.71011,341.15154 C 345.49764,341.16739 346.84038,342.00399 347.83705,341.21448 C 350.05923,340.98651 352.29356,340.76616 354.50835,340.44529 C 358.00917,339.81057 361.5022,338.96428 365.07171,338.87468 C 369.18011,338.59061 373.27545,338.21736 377.35617,337.64839 C 381.6777,337.20991 385.99978,336.78703 390.32448,336.38782 C 394.97426,335.61731 399.59145,334.70322 404.14448,333.46252 C 408.23392,332.33187 412.32181,331.19816 416.43883,330.16831 C 420.86168,328.86149 425.19384,327.32266 429.48106,325.61389 C 434.22718,323.995 438.92466,322.26183 443.59833,320.44589 C 447.39537,319.20846 451.25329,318.24562 455.05838,317.04113 C 455.60095,316.79923 456.14352,316.55732 456.68609,316.31542 C 452.96997,318.48362 449.25385,320.65182 445.53773,322.82003 C 443.30131,324.12807 454.47698,317.60006 452.13984,318.71822 C 455.04417,316.97976 457.97211,315.31922 460.12473,312.62259 C 461.09939,311.0701 462.39368,309.69151 462.65283,307.76895 C 463.19134,306.25835 463.8762,304.83876 464.06875,303.21865 C 464.06926,301.19847 464.06864,299.17829 464.07184,297.15811 C 464.077,295.01742 464.08177,292.87674 464.09202,290.73607 C 464.08952,288.22116 464.12404,285.70373 463.97789,283.1917 C 463.78614,280.912 463.57765,278.63706 463.25932,276.36966 C 463.14764,272.3327 463.18309,268.28913 463.08407,264.24787 C 463.096,261.42247 463.1033,258.59723 463.09046,255.77191 C 463.09089,252.69119 463.10902,249.61026 463.0691,246.52969 C 463.0949,243.40657 463.07008,240.27876 463.3276,237.16309 C 463.72331,233.31338 464.26236,229.5035 465.59877,225.84155 C 466.63477,222.13191 467.49058,218.3335 468.96065,214.75453 C 470.50008,211.28437 472.12998,207.90968 474.3039,204.77594 C 476.10935,201.74687 477.96229,198.82906 480.70913,196.53721 C 483.20232,193.91139 485.6633,191.46034 488.9628,189.83601 C 495.9271,185.74269 502.61458,181.04233 510.24353,178.25401 C 513.03051,177.50829 515.80773,176.99002 518.69367,176.77948 C 520.9333,176.51357 523.14924,176.21834 525.42098,176.38375 C 527.53852,176.44961 529.66943,176.43677 531.75074,176.90178 C 534.6701,177.75905 537.57626,178.62638 540.35508,179.90717 C 543.14286,181.19719 546.03416,182.35671 548.51513,184.20256 C 550.53671,185.75388 552.57569,187.26098 554.35016,189.10724 C 556.23644,190.57588 558.21518,191.95263 559.67379,193.88531 C 560.73524,195.5406 561.81365,197.15981 562.56809,198.9907 C 563.30287,200.5809 564.24145,202.06921 564.25145,203.89519 C 564.02059,206.09495 563.9371,208.29065 562.81755,210.27825 C 561.29976,212.5615 559.7573,214.81372 557.98155,216.91604 C 555.62477,219.91065 553.3664,223.02833 550.40753,225.47192 C 542.71673,230.87631 534.58601,235.66928 526.24491,240.0777 C 521.95335,242.37233 517.6905,244.83195 512.98778,246.19115 C 509.3674,247.23032 505.73579,248.2385 502.15644,249.41393 C 499.21663,249.7449 496.25513,250.04964 493.31103,250.44223 C 490.52054,250.73158 487.73431,250.97826 484.92577,250.75799 C 482.5669,250.59599 480.20537,250.47805 477.87276,250.05033 C 475.76505,249.91339 473.65749,249.76475 471.54144,249.71134 C 469.47032,249.44502 467.39026,249.2467 465.39988,248.55285 C 463.26972,247.93568 461.14235,247.37742 459.21302,246.22381 C 457.05323,245.18992 454.92856,244.06343 452.6816,243.22998 C 450.6801,242.2316 448.65042,241.29208 446.81445,239.99013 C 444.50916,238.30852 442.12696,236.72308 440.22772,234.54225 C 439.27821,233.17351 438.22873,231.86676 437.42517,230.39679 C 436.80391,228.98276 436.08829,227.59902 435.5356,226.14847 C 434.89298,224.58791 434.10521,223.07457 433.92006,221.36262 C 433.8394,219.36147 433.64625,217.34042 433.75652,215.32134 C 433.77001,213.32717 433.74665,211.33172 433.84703,209.33917 C 434.03655,207.55635 434.0647,205.74734 434.60199,204.01582 C 434.69889,202.02004 434.91413,199.98508 434.80385,197.96113 C 434.80573,195.65923 434.84958,193.35394 434.68888,191.05574 C 434.33467,189.14537 434.353,187.1695 433.14933,185.51363 C 432.12465,184.47939 431.21482,183.30564 430.03329,182.41903 C 428.7364,181.40099 427.44218,180.3795 426.13938,179.37007 C 425.078,178.48508 424.12995,177.4515 422.91031,176.76643 C 421.59629,175.9864 420.24378,175.27759 419.02226,174.34949 C 417.65059,173.35935 416.37023,172.24074 414.76333,171.61633 C 412.99575,170.7696 411.18932,170.00566 409.64254,168.76931 C 408.42883,167.92695 407.33114,166.88893 405.9229,166.36247 C 404.19845,165.82365 402.52533,165.11207 400.68503,165.04224 C 398.88591,165.13848 397.05324,165.03043 395.30578,165.59423 C 389.95352,167.68211 380.68053,171.95248 403.08088,160.33765 C 401.27398,161.58633 399.43451,162.80097 398.01989,164.52389 C 396.94695,166.60342 395.83308,168.50837 396.08805,171.009 C 396.44481,172.94049 396.93449,174.8327 397.07684,176.80106 C 397.28703,177.96449 397.79532,179.06746 397.66887,180.27751 L 384.1892,187.14574 z " />
  </g>
</svg>
